<?xml version="1.0" encoding="utf-8"?>
<!-- Generator: Adobe Illustrator 12.0.0, SVG Export Plug-In . SVG Version: 6.00 Build 51448)  -->
<!DOCTYPE svg PUBLIC "-//W3C//DTD SVG 1.1//EN" "http://www.w3.org/Graphics/SVG/1.1/DTD/svg11.dtd" [
	<!ENTITY ns_svg "http://www.w3.org/2000/svg">
	<!ENTITY ns_xlink "http://www.w3.org/1999/xlink">
]>
<svg  version="1.1" id="Ebene_1" xmlns="&ns_svg;" xmlns:xlink="&ns_xlink;" width="198.872" height="198.873"
	 viewBox="0 0 198.872 198.873" overflow="visible" enable-background="new 0 0 198.872 198.873" xml:space="preserve">
<rect x="0.5" y="0.5" opacity="0" fill="none" stroke="#231F20" width="197.872" height="197.873"/>
<g>
	<g>
		<g>
			<g>
				<path fill="#7AFFD2" d="M154.076,41.725c-17.009,5.873-45.603,1.854-53.337-9.628c-1.73,2.579-4.139,4.771-7.176,6.422
					c-11.439,6.226-36.58,8.106-48.967,2.241c-0.516-0.237-1.418-1.758-2.184-0.633c0.399,31.483,3.154,58.59,12.787,79.939
					c9.707,21.5,25.174,35.951,45.229,46.545c20.793-9.988,35.865-25.045,45.531-46.545c9.67-21.479,13.038-48.495,13.106-80.269
					C157.527,40.143,155.957,41.082,154.076,41.725z M54.268,55.534c17.354,1.716,35.076-0.627,46.163-7.386
					c0.103,0.057,0.209,0.105,0.312,0.16c0.029,28.132,0.312,79.339,0.312,104.826C69.534,136.992,55.827,102.512,54.268,55.534z"/>
			</g>
		</g>
	</g>
</g>
</svg>
