<?xml version="1.0" encoding="utf-8"?>
<!-- Generator: Adobe Illustrator 12.0.0, SVG Export Plug-In . SVG Version: 6.00 Build 51448)  -->
<!DOCTYPE svg PUBLIC "-//W3C//DTD SVG 1.1//EN" "http://www.w3.org/Graphics/SVG/1.1/DTD/svg11.dtd" [
	<!ENTITY ns_svg "http://www.w3.org/2000/svg">
	<!ENTITY ns_xlink "http://www.w3.org/1999/xlink">
]>
<svg  version="1.1" id="Ebene_1" xmlns="&ns_svg;" xmlns:xlink="&ns_xlink;" width="198.872" height="198.873"
	 viewBox="0 0 198.872 198.873" overflow="visible" enable-background="new 0 0 198.872 198.873" xml:space="preserve">
<rect x="0.5" y="0.5" opacity="0" fill="none" stroke="#231F20" width="197.872" height="197.873"/>
<g>
	<g>
		<g>
			<path fill="#7AFFD2" d="M106.325,51.364l-10.459,0.037l-0.021-6.188l10.459-0.039l-0.036-11.019l5.92-0.02l0.036,11.016
				l10.455-0.039l0.021,6.19l-10.455,0.039l0.035,10.876l-5.92,0.022L106.325,51.364z"/>
			<path fill="#7AFFD2" d="M137.921,51.247l-10.459,0.039l-0.021-6.19l10.458-0.039l-0.037-11.015l5.92-0.021l0.037,11.016
				l10.458-0.037l0.021,6.188l-10.455,0.039l0.037,10.877l-5.92,0.021L137.921,51.247z"/>
		</g>
		<g>
			<path fill="#7AFFD2" d="M67.806,87.179c-2.65,0.96-5.258,0.919-8.743,0.919c-1.66,0-7.854,0.837-8.731,0
				c-3.199-3.076,3.98-28.683,8.731-31.046C65.8,67.095,67.12,77.146,67.806,87.179z"/>
			<path fill="#7AFFD2" d="M66.929,90.833c1.486,4.717,0.328,9.433,4.791,14.154c-0.353,16.741-0.353,33.477,0,50.224
				c-0.859,0.912-1.741,1.819-2.603,2.735c-0.112,1.829,3.47,3.653,2.603,5.486c-6.838,2.179-17.438,1.306-25.754,0.449
				c-0.021-2.695,0.457-2.676,3.063-5.023c-1.021-1.059-2.047-2.127-3.063-3.186c0.359-17.06,0.359-34.101,0-51.147
				c4.365-4.099,3.774-8.216,3.935-12.327C55.569,90.156,61.253,92.871,66.929,90.833z"/>
		</g>
		<g>
			<path fill="#7AFFD2" d="M100.968,87.179c-2.656,0.96-5.266,0.919-8.752,0.919c-1.658,0-7.854,0.837-8.73,0
				c-3.199-3.076,3.975-28.683,8.73-31.046C98.96,67.095,100.28,77.146,100.968,87.179z"/>
			<path fill="#7AFFD2" d="M100.083,90.833c1.487,4.717,0.322,9.433,4.799,14.154c-0.359,16.741-0.359,33.477,0,50.224
				c-0.865,0.912-1.731,1.819-2.615,2.735c-0.106,1.829,3.48,3.653,2.615,5.486c-6.856,2.179-17.449,1.306-25.754,0.449
				c-0.021-2.695,0.453-2.676,3.049-5.023c-1.021-1.059-2.033-2.127-3.049-3.186c0.365-17.06,0.365-34.101,0-51.147
				c4.357-4.099,3.771-8.216,3.934-12.327C88.737,90.156,94.407,92.871,100.083,90.833z"/>
		</g>
		<g>
			<path fill="#7AFFD2" d="M134.116,87.179c-2.652,0.96-5.252,0.919-8.732,0.919c-1.67,0-7.858,0.837-8.731,0
				c-3.212-3.076,3.976-28.683,8.731-31.046C132.11,67.095,133.436,77.146,134.116,87.179z"/>
			<path fill="#7AFFD2" d="M133.249,90.833c1.487,4.717,0.329,9.433,4.799,14.154c-0.371,16.741-0.371,33.477,0,50.224
				c-0.877,0.912-1.756,1.819-2.613,2.735c-0.108,1.829,3.46,3.653,2.613,5.486c-6.858,2.179-17.457,1.306-25.766,0.449
				c-0.02-2.695,0.46-2.676,3.057-5.023c-1.021-1.059-2.043-2.127-3.057-3.186c0.363-17.06,0.363-34.101,0-51.147
				c4.369-4.099,3.771-8.216,3.926-12.327C121.89,90.156,127.575,92.871,133.249,90.833z"/>
		</g>
	</g>
</g>
</svg>
