<?xml version="1.0" encoding="utf-8"?>
<!-- Generator: Adobe Illustrator 12.0.0, SVG Export Plug-In . SVG Version: 6.00 Build 51448)  -->
<!DOCTYPE svg PUBLIC "-//W3C//DTD SVG 1.1//EN" "http://www.w3.org/Graphics/SVG/1.1/DTD/svg11.dtd" [
	<!ENTITY ns_svg "http://www.w3.org/2000/svg">
	<!ENTITY ns_xlink "http://www.w3.org/1999/xlink">
]>
<svg  version="1.1" id="Ebene_1" xmlns="&ns_svg;" xmlns:xlink="&ns_xlink;" width="198.872" height="198.873"
	 viewBox="0 0 198.872 198.873" overflow="visible" enable-background="new 0 0 198.872 198.873" xml:space="preserve">
<rect x="0.5" y="0.5" opacity="0" fill="none" stroke="#231F20" width="197.872" height="197.873"/>
<g>
	<polygon fill="#7AFFD2" points="41.462,145.678 79.279,123.155 94.245,122.924 84.519,135.256 	"/>
	<polygon fill="#7AFFD2" points="5.241,98.071 61.075,76.754 81.149,79.935 65.263,94.165 	"/>
	<g>
		<path fill="#7AFFD2" d="M134.721,121.328l13.621-4.429l1.047,8.013c0,0,47.023-37.167,43.976-50.137
			c-3.207-13.671-62.832-22.36-62.832-22.36l3.386,7.756l-24.5,5.046c29.694-0.263,70.096,1.344,71.32,11.973
			c1.298,11.251-27.104,30.657-53.301,46.506L134.721,121.328"/>
		<g>
			<path fill="#7AFFD2" d="M180.739,77.189c-1.224-10.627-41.625-12.236-71.32-11.973l-20.086,4.136l19.229,10.208L81.135,91.64
				l-69.293,30.517l71.931-6.969l32.877-3.185l-10.683,18.673l21.473-6.98C153.636,107.847,182.037,88.44,180.739,77.189z"/>
		</g>
	</g>
	<g>
		<path fill="#FFFFFF" d="M132.529,78.155c0.779-0.224,1.563-0.447,2.346-0.67c-1.533,3.355-3.32,6.57-5.354,9.646
			c-0.464-1.439-0.068-2.405-0.003-3.548C130.776,81.912,131.779,80.105,132.529,78.155z"/>
		<path fill="#FFFFFF" d="M149.334,74.864c0.909,0.019,2.015-0.316,2.613,0.267c-0.369,1.766-1.84,2.921-2.209,4.688
			c-0.922,0.48-1.331,0.036-2.007,0.07C147.762,78.052,150.798,76.271,149.334,74.864z"/>
		<path fill="#FFFFFF" d="M136.017,86.792c0.625-0.18,1.25-0.359,1.873-0.536c-1.494,3.767-4.052,6.946-5.551,10.715
			c-0.992,0.371-0.69-1.602-1.143-2.208C133.162,92.304,134.055,89.25,136.017,86.792z"/>
		<path fill="#FFFFFF" d="M141.173,85.314c1.905-0.359,4.367-1.717,5.756-1.141c-3.058,6.582-7.174,12.576-10.234,19.156
			c-1.019-0.06-1.606-0.893-2.075-1.94c4.105-3.525,6.81-11.186,9.966-16.545C143.536,84.844,141.672,86.306,141.173,85.314z"/>
		<path fill="#FFFFFF" d="M153.157,82.898c1.211-0.766,1.402,0.312,2.478-0.203c-3.17,6.781-7.4,12.978-10.569,19.76
			c1.249-0.357,2.5-0.716,3.749-1.073c-2.127,1.453-7.731,3.058-10.308,2.951c1.112-0.618,2.554-0.326,3.749-1.074
			C146.583,100.548,150.707,85.578,153.157,82.898z"/>
		<path fill="#FFFFFF" d="M129.518,83.582c0.15-2.284-0.08-4.775,3.01-5.427C131.779,80.105,130.776,81.912,129.518,83.582z"/>
		<path fill="#FFFFFF" d="M166.484,88.714c0.938-2.765,2.944-4.936,3.879-7.703C171.336,83.268,167.896,86.473,166.484,88.714z"/>
		<path fill="#FFFFFF" d="M166.745,79.004c1.543,0.067,2.746,0.735,3.618,2.007c-0.935,2.767-2.941,4.938-3.879,7.703
			c-3.005,3.327-5.746,6.8-10.574,9.115C158.087,92.585,162.564,83.138,166.745,79.004z"/>
		<path fill="#FFFFFF" d="M159.915,76.398c1.59-0.261,2.461,0.778,3.819,0.935c0.028,0.424,0.309,0.389,0.604,0.334
			c-0.254,1.569-1.622,2.519-1.873,4.087c-1.182,0.707-1.209-0.662-2.144-0.401c-1.183,0.71-1.211-0.659-2.143-0.399
			C156.662,79.623,158.532,77.372,159.915,76.398z"/>
		<path fill="#FFFFFF" d="M155.029,75.263c1.923-0.154,3.438,0.436,4.886,1.136c-1.383,0.973-3.252,3.225-1.739,4.555
			c-1.287-0.284-2.578-0.562-3.816-0.937c2.22-0.606,2.172-2.471,2.945-3.884C156.9,75.205,155.434,76.191,155.029,75.263z"/>
		<path fill="#FFFFFF" d="M141.901,75.472c0.754-0.175,1.724-0.74,2.009-0.069c0.021,1.978-4.387,5.12-1.001,5.358
			c-2.419,0.893-6.091,1.088-6.761,2.95C138.243,81.063,141.146,78.862,141.901,75.472z"/>
		<path fill="#FFFFFF" d="M160.319,81.353c0.934-0.261,0.963,1.109,2.145,0.401c0.251-1.568,1.619-2.518,1.871-4.087
			c-0.293,0.055-0.573,0.091-0.604-0.334c1.147,0.3,2.152,0.86,3.014,1.672c-4.181,4.133-8.66,13.58-10.835,18.824
			c-0.667,0.944-1.969,1.536-3.481,2.012c0.31-4.204,9.349-13.293,9.366-16.881c0.002-0.643-1.676,0.237-1.676-0.535
			C161.327,82.103,160.591,81.912,160.319,81.353z"/>
		<path fill="#FFFFFF" d="M143.911,75.403c2.141-0.78,3.801-0.692,5.424-0.54c1.464,1.407-1.573,3.188-1.603,5.023
			c-1.953,0.915-2.87-0.042-4.822,0.874C139.525,80.524,143.932,77.382,143.911,75.403z"/>
		<path fill="#FFFFFF" d="M151.948,75.131c1.411-0.646,2.021,0.142,3.081,0.131c0.405,0.929,1.872-0.058,2.276,0.87
			c-0.771,1.413-0.724,3.278-2.943,3.884c-1.625,0.086-3.146-0.016-4.623-0.198C150.108,78.052,151.579,76.897,151.948,75.131z"/>
		<path fill="#FFFFFF" d="M136.147,83.711c0.163,1.139-0.009,2.097-0.13,3.081c-1.963,2.458-2.855,5.513-4.82,7.971
			c-0.628-2.583-1.934-5.542-1.675-7.633c2.034-3.075,3.821-6.29,5.354-9.645c2.341-0.671,4.683-1.345,7.026-2.012
			C141.146,78.862,138.243,81.063,136.147,83.711z"/>
		<path fill="#FFFFFF" d="M146.929,84.174c2.288-0.811,4.322-1.157,6.228-1.276c-2.451,2.68-6.573,17.65-10.903,20.362
			c-1.194,0.748-2.636,0.456-3.748,1.074c-0.581-0.375-1.771,0.349-1.812-1.003C139.755,96.75,143.871,90.755,146.929,84.174z"/>
		<path fill="#FFFFFF" d="M155.635,82.695c1.737-0.529,3.099-0.375,4.486-0.271c0,0.772,1.676-0.107,1.676,0.535
			c-0.019,3.589-9.058,12.677-9.366,16.881c-0.474,0.918-2.28,1.099-3.617,1.542c-1.249,0.357-2.5,0.716-3.749,1.073
			C148.235,95.673,152.465,89.476,155.635,82.695z"/>
		<path fill="#FFFFFF" d="M134.62,101.39c-0.9-1.224-1.823-2.399-2.28-4.418c1.499-3.769,4.057-6.949,5.552-10.715
			c1.095-0.313,2.188-0.626,3.283-0.941c0.5,0.991,2.362-0.471,3.413-0.471C141.429,90.205,138.725,97.864,134.62,101.39z"/>
	</g>
</g>
</svg>
