<?xml version="1.0" encoding="utf-8"?>
<!-- Generator: Adobe Illustrator 12.0.0, SVG Export Plug-In . SVG Version: 6.00 Build 51448)  -->
<!DOCTYPE svg PUBLIC "-//W3C//DTD SVG 1.1//EN" "http://www.w3.org/Graphics/SVG/1.1/DTD/svg11.dtd" [
	<!ENTITY ns_svg "http://www.w3.org/2000/svg">
	<!ENTITY ns_xlink "http://www.w3.org/1999/xlink">
]>
<svg  version="1.1" id="Ebene_1" xmlns="&ns_svg;" xmlns:xlink="&ns_xlink;" width="376.055" height="287.943"
	 viewBox="0 0 376.055 287.943" overflow="visible" enable-background="new 0 0 376.055 287.943" xml:space="preserve">
<g>
	<path fill="#221E1F" d="M145.812,114.935h-0.645v-11.56c0-4.88-0.434-7.692-2.813-9.528c-2.303-1.778-6.338-2.459-13.451-3.164
		c-14.115-1.395-21.811-1.501-31.143-1.501c-0.795,0-1.6,0-2.428,0.002c-0.828-0.002-1.639-0.002-2.434-0.002
		c-9.332,0-17.027,0.106-31.143,1.501c-7.113,0.705-11.146,1.386-13.451,3.164c-2.377,1.836-2.813,4.648-2.813,9.528v24.506h-0.451
		c-0.182,0-0.33,0.15-0.33,0.333v30.549c0,0.183,0.148,0.332,0.33,0.332h0.451v112.822c0,4.395,0,7.57,1.818,9.839
		c1.805,2.255,5.311,3.498,12.098,4.295c13.52,1.582,22.236,1.893,32.727,1.893c1.053,0,2.117-0.004,3.191-0.007
		c1.082,0.003,2.146,0.007,3.197,0.007c10.49,0,19.211-0.311,32.727-1.893c6.789-0.797,10.293-2.04,12.1-4.295
		c1.816-2.269,1.816-5.444,1.816-9.839V127.743h0.645c0.18,0,0.33-0.151,0.33-0.332v-12.144
		C146.142,115.085,145.991,114.935,145.812,114.935"/>
	<path fill="#7AFFD1" d="M62.228,98.045c-0.936,0-1.693,0.761-1.693,1.691c0,0.935,0.758,1.695,1.693,1.695
		c0.934,0,1.691-0.761,1.691-1.695C63.919,98.806,63.161,98.045,62.228,98.045 M95.333,96.586c-1.656,0-3,1.346-3,3
		c0,1.653,1.344,2.998,3,2.998c1.65,0,2.996-1.345,2.996-2.998C98.329,97.932,96.983,96.586,95.333,96.586"/>
	<line fill="#FFFFFF" x1="50.446" y1="189.427" x2="50.446" y2="185.271"/>
	<line fill="#FFFFFF" x1="140.212" y1="185.271" x2="140.212" y2="189.427"/>
	<line fill="#FFFFFF" x1="50.446" y1="185.271" x2="50.446" y2="181.115"/>
	<line fill="#FFFFFF" x1="140.212" y1="181.115" x2="140.212" y2="185.271"/>
	<line fill="#F7F8F9" x1="50.446" y1="197.737" x2="50.446" y2="193.582"/>
	<line fill="#FFFFFF" x1="140.212" y1="193.582" x2="140.212" y2="197.737"/>
	<line fill="#FFFFFF" x1="50.446" y1="193.583" x2="50.446" y2="189.427"/>
	<line fill="#F7F8F9" x1="140.212" y1="189.427" x2="140.212" y2="193.583"/>
	<line fill="#F7F8F9" x1="50.446" y1="206.05" x2="50.446" y2="201.895"/>
	<line fill="#FFFFFF" x1="140.212" y1="201.895" x2="140.212" y2="206.05"/>
	<line fill="#FFFFFF" x1="50.446" y1="201.894" x2="50.446" y2="197.737"/>
	<line fill="#F7F8F9" x1="140.212" y1="197.737" x2="140.212" y2="201.894"/>
	<line fill="#F7F8F9" x1="50.446" y1="214.362" x2="50.446" y2="210.207"/>
	<line fill="#FFFFFF" x1="140.212" y1="210.207" x2="140.212" y2="214.362"/>
	<line fill="#FFFFFF" x1="50.446" y1="210.206" x2="50.446" y2="206.05"/>
	<line fill="#F7F8F9" x1="140.212" y1="206.05" x2="140.212" y2="210.206"/>
	<line fill="#F7F8F9" x1="50.446" y1="222.674" x2="50.446" y2="218.518"/>
	<line fill="#FFFFFF" x1="140.212" y1="218.518" x2="140.212" y2="222.674"/>
	<line fill="#FFFFFF" x1="50.446" y1="218.517" x2="50.446" y2="214.362"/>
	<line fill="#F7F8F9" x1="140.212" y1="214.362" x2="140.212" y2="218.517"/>
	<line fill="#F7F8F9" x1="50.446" y1="230.985" x2="50.446" y2="226.829"/>
	<line fill="#FFFFFF" x1="140.212" y1="226.829" x2="140.212" y2="230.985"/>
	<line fill="#FFFFFF" x1="50.446" y1="226.829" x2="50.446" y2="222.673"/>
	<line fill="#F7F8F9" x1="140.212" y1="222.673" x2="140.212" y2="226.829"/>
	<line fill="#FFFFFF" x1="50.446" y1="239.297" x2="50.446" y2="235.142"/>
	<line fill="#FFFFFF" x1="140.212" y1="235.142" x2="140.212" y2="239.297"/>
	<line fill="#FFFFFF" x1="50.446" y1="235.142" x2="50.446" y2="230.985"/>
	<line fill="#FFFFFF" x1="140.212" y1="230.985" x2="140.212" y2="235.142"/>
	<line fill="#FFFFFF" x1="50.446" y1="247.609" x2="50.446" y2="243.454"/>
	<line fill="#FFFFFF" x1="140.212" y1="243.454" x2="140.212" y2="247.609"/>
	<line fill="#FFFFFF" x1="50.446" y1="243.453" x2="50.446" y2="239.297"/>
	<line fill="#FFFFFF" x1="140.212" y1="239.297" x2="140.212" y2="243.453"/>
	<line fill="#FFFFFF" x1="50.446" y1="255.921" x2="50.446" y2="251.766"/>
	<line fill="#FFFFFF" x1="140.212" y1="251.766" x2="140.212" y2="255.921"/>
	<line fill="#FFFFFF" x1="50.446" y1="251.765" x2="50.446" y2="247.609"/>
	<line fill="#FFFFFF" x1="140.212" y1="247.609" x2="140.212" y2="251.765"/>
	<line fill="#FFFFFF" x1="50.446" y1="264.233" x2="50.446" y2="260.076"/>
	<line fill="#FFFFFF" x1="140.212" y1="260.076" x2="140.212" y2="264.233"/>
	<line fill="#FFFFFF" x1="50.446" y1="260.076" x2="50.446" y2="255.921"/>
	<line fill="#FFFFFF" x1="140.212" y1="255.921" x2="140.212" y2="260.076"/>
	<line fill="#FFFFFF" x1="58.759" y1="265.895" x2="54.601" y2="265.895"/>
	<polyline fill="#FFFFFF" points="54.601,265.895 50.446,265.895 50.446,264.233 	"/>
	<line fill="#FFFFFF" x1="62.913" y1="265.895" x2="58.759" y2="265.895"/>
	<line fill="#FFFFFF" x1="67.069" y1="265.895" x2="62.913" y2="265.895"/>
	<line fill="#FFFFFF" x1="71.226" y1="265.895" x2="67.069" y2="265.895"/>
	<line fill="#FFFFFF" x1="75.382" y1="265.895" x2="71.226" y2="265.895"/>
	<line fill="#FFFFFF" x1="79.536" y1="265.895" x2="75.382" y2="265.895"/>
	<line fill="#FFFFFF" x1="83.692" y1="265.895" x2="79.536" y2="265.895"/>
	<line fill="#FFFFFF" x1="87.849" y1="265.895" x2="83.692" y2="265.895"/>
	<line fill="#FFFFFF" x1="92.005" y1="265.895" x2="87.849" y2="265.895"/>
	<line fill="#FFFFFF" x1="96.161" y1="265.895" x2="92.005" y2="265.895"/>
	<line fill="#FFFFFF" x1="100.317" y1="265.895" x2="96.161" y2="265.895"/>
	<line fill="#FFFFFF" x1="104.472" y1="265.895" x2="100.317" y2="265.895"/>
	<line fill="#FFFFFF" x1="108.628" y1="265.895" x2="104.472" y2="265.895"/>
	<line fill="#FFFFFF" x1="112.784" y1="265.895" x2="108.628" y2="265.895"/>
	<line fill="#FFFFFF" x1="116.94" y1="265.895" x2="112.784" y2="265.895"/>
	<line fill="#FFFFFF" x1="121.095" y1="265.895" x2="116.94" y2="265.895"/>
	<line fill="#FFFFFF" x1="125.251" y1="265.895" x2="121.095" y2="265.895"/>
	<line fill="#FFFFFF" x1="129.407" y1="265.895" x2="125.251" y2="265.895"/>
	<line fill="#FFFFFF" x1="133.563" y1="265.895" x2="129.407" y2="265.895"/>
	<line fill="#FFFFFF" x1="137.72" y1="265.895" x2="133.563" y2="265.895"/>
	<polyline fill="#FFFFFF" points="140.212,264.233 140.212,265.895 137.72,265.895 	"/>
	<line fill="#FFFFFF" x1="50.446" y1="181.115" x2="50.446" y2="176.959"/>
	<line fill="#FFFFFF" x1="140.212" y1="176.959" x2="140.212" y2="181.115"/>
	<line fill="#FFFFFF" x1="50.446" y1="176.959" x2="50.446" y2="172.804"/>
	<line fill="#FFFFFF" x1="140.212" y1="172.804" x2="140.212" y2="176.959"/>
	<line fill="#FFFFFF" x1="50.446" y1="172.804" x2="50.446" y2="168.646"/>
	<line fill="#FFFFFF" x1="140.212" y1="168.646" x2="140.212" y2="172.804"/>
	<line fill="#FFFFFF" x1="50.446" y1="168.646" x2="50.446" y2="164.49"/>
	<line fill="#FFFFFF" x1="140.212" y1="164.49" x2="140.212" y2="168.646"/>
	<line fill="#FFFFFF" x1="50.446" y1="164.491" x2="50.446" y2="160.336"/>
	<line fill="#FFFFFF" x1="140.212" y1="160.336" x2="140.212" y2="164.491"/>
	<line fill="#FFFFFF" x1="50.446" y1="160.336" x2="50.446" y2="156.179"/>
	<line fill="#FFFFFF" x1="140.212" y1="156.179" x2="140.212" y2="160.336"/>
	<line fill="#FFFFFF" x1="50.446" y1="156.179" x2="50.446" y2="152.023"/>
	<line fill="#FFFFFF" x1="140.212" y1="152.023" x2="140.212" y2="156.179"/>
	<line fill="#FFFFFF" x1="50.446" y1="152.023" x2="50.446" y2="147.868"/>
	<line fill="#FFFFFF" x1="140.212" y1="147.868" x2="140.212" y2="152.023"/>
	<line fill="#FFFFFF" x1="50.446" y1="147.868" x2="50.446" y2="143.711"/>
	<line fill="#FFFFFF" x1="140.212" y1="143.711" x2="140.212" y2="147.868"/>
	<line fill="#FFFFFF" x1="50.446" y1="143.712" x2="50.446" y2="139.555"/>
	<line fill="#FFFFFF" x1="140.212" y1="139.555" x2="140.212" y2="143.712"/>
	<line fill="#FFFFFF" x1="50.446" y1="139.555" x2="50.446" y2="135.399"/>
	<line fill="#FFFFFF" x1="140.212" y1="135.399" x2="140.212" y2="139.555"/>
	<line fill="#FFFFFF" x1="50.446" y1="135.399" x2="50.446" y2="131.244"/>
	<line fill="#FFFFFF" x1="140.212" y1="131.244" x2="140.212" y2="135.399"/>
	<line fill="#FFFFFF" x1="50.446" y1="131.244" x2="50.446" y2="127.087"/>
	<line fill="#FFFFFF" x1="140.212" y1="127.087" x2="140.212" y2="131.244"/>
	<line fill="#FFFFFF" x1="50.446" y1="127.088" x2="50.446" y2="122.932"/>
	<line fill="#FFFFFF" x1="140.212" y1="122.932" x2="140.212" y2="127.088"/>
	<line fill="#FFFFFF" x1="50.446" y1="122.932" x2="50.446" y2="118.776"/>
	<line fill="#FFFFFF" x1="140.212" y1="118.776" x2="140.212" y2="122.932"/>
	<line fill="#FFFFFF" x1="50.446" y1="118.776" x2="50.446" y2="114.62"/>
	<line fill="#FFFFFF" x1="140.212" y1="114.62" x2="140.212" y2="118.776"/>
	<line fill="#FFFFFF" x1="50.446" y1="114.62" x2="50.446" y2="110.464"/>
	<line fill="#FFFFFF" x1="140.212" y1="110.464" x2="140.212" y2="114.62"/>
	<line fill="#FFFFFF" x1="54.601" y1="106.308" x2="58.759" y2="106.308"/>
	<polyline fill="#FFFFFF" points="50.446,110.464 50.446,106.308 54.601,106.308 	"/>
	<line fill="#FFFFFF" x1="58.759" y1="106.308" x2="62.913" y2="106.308"/>
	<line fill="#FFFFFF" x1="62.913" y1="106.308" x2="67.069" y2="106.308"/>
	<line fill="#FFFFFF" x1="67.069" y1="106.308" x2="71.226" y2="106.308"/>
	<line fill="#FFFFFF" x1="71.226" y1="106.308" x2="75.382" y2="106.308"/>
	<line fill="#FFFFFF" x1="75.382" y1="106.308" x2="79.536" y2="106.308"/>
	<line fill="#FFFFFF" x1="79.536" y1="106.308" x2="83.692" y2="106.308"/>
	<line fill="#FFFFFF" x1="83.692" y1="106.308" x2="87.849" y2="106.308"/>
	<line fill="#FFFFFF" x1="87.849" y1="106.308" x2="92.005" y2="106.308"/>
	<line fill="#FFFFFF" x1="92.005" y1="106.308" x2="96.161" y2="106.308"/>
	<line fill="#FFFFFF" x1="96.161" y1="106.308" x2="100.317" y2="106.308"/>
	<line fill="#FFFFFF" x1="100.317" y1="106.308" x2="104.472" y2="106.308"/>
	<line fill="#FFFFFF" x1="104.472" y1="106.308" x2="108.628" y2="106.308"/>
	<line fill="#FFFFFF" x1="108.628" y1="106.308" x2="112.784" y2="106.308"/>
	<line fill="#FFFFFF" x1="112.784" y1="106.308" x2="116.94" y2="106.308"/>
	<line fill="#FFFFFF" x1="116.94" y1="106.308" x2="121.095" y2="106.308"/>
	<line fill="#FFFFFF" x1="121.095" y1="106.308" x2="125.251" y2="106.308"/>
	<line fill="#FFFFFF" x1="125.251" y1="106.308" x2="129.407" y2="106.308"/>
	<line fill="#FFFFFF" x1="129.407" y1="106.308" x2="133.563" y2="106.308"/>
	<line fill="#FFFFFF" x1="133.563" y1="106.308" x2="137.72" y2="106.308"/>
	<polyline fill="#FFFFFF" points="137.72,106.308 140.212,106.308 140.212,110.464 	"/>
</g>
<rect x="50.446" y="106.308" fill="#7AFFD1" width="89.766" height="160.092"/>
<g>
	<g>
		<path fill="#6FDCB4" d="M175.639,181.809c-0.039,0.547-0.166,1.064-0.381,1.553s-0.479,0.957-0.791,1.406
			s-0.654,0.879-1.025,1.289s-0.732,0.771-1.084,1.084c0.117,0.508,0.127,0.889,0.029,1.143s-0.127,0.635-0.088,1.143
			c-0.586,1.563-1.475,2.607-2.666,3.135s-2.314,0.42-3.369-0.322c-0.43-0.313-0.791-0.713-1.084-1.201s-0.693-0.791-1.201-0.908
			c0.117-0.664,0.059-1.328-0.176-1.992s-0.488-1.016-0.762-1.055c-0.117-0.82-0.293-1.699-0.527-2.637s-0.449-1.885-0.645-2.842
			s-0.361-1.895-0.498-2.813s-0.186-1.768-0.146-2.549c0.039-0.391-0.029-0.742-0.205-1.055s-0.303-0.684-0.381-1.113
			c-0.156-0.898-0.205-1.846-0.146-2.842s0.088-1.943,0.088-2.842c0-0.859-0.049-1.787-0.146-2.783s-0.186-1.953-0.264-2.871
			s-0.117-1.758-0.117-2.52s0.098-1.357,0.293-1.787c0.234-0.469,0.557-0.85,0.967-1.143s0.791-0.615,1.143-0.967
			c0.859,0.078,1.543,0.43,2.051,1.055s0.703,1.211,0.586,1.758c0.82,0.508,1.475,1.162,1.963,1.963s0.879,1.699,1.172,2.695
			s0.498,2.051,0.615,3.164s0.215,2.207,0.293,3.281s0.156,2.1,0.234,3.076s0.234,1.816,0.469,2.52
			c1.445-2.07,2.656-3.916,3.633-5.537s1.973-3.174,2.988-4.658s2.148-2.988,3.398-4.512s2.871-3.242,4.863-5.156
			c0.391,0.039,0.713,0.117,0.967,0.234s0.479,0.215,0.674,0.293s0.43,0.146,0.703,0.205s0.645,0.049,1.113-0.029
			c0.156,0.391,0.273,0.674,0.352,0.85s0.146,0.352,0.205,0.527s0.137,0.4,0.234,0.674s0.264,0.664,0.498,1.172
			c0.117,0.117,0.156,0.273,0.117,0.469s-0.068,0.381-0.088,0.557s-0.029,0.303-0.029,0.381s0.098,0.078,0.293,0
			c-0.117,0.547-0.322,1.045-0.615,1.494s-0.42,0.986-0.381,1.611c-0.898,1.172-1.885,2.383-2.959,3.633s-2.148,2.539-3.223,3.867
			s-2.1,2.725-3.076,4.189s-1.816,2.998-2.52,4.6c-0.195,0-0.342,0.059-0.439,0.176s-0.186,0.244-0.264,0.381
			s-0.166,0.264-0.264,0.381S175.795,181.809,175.639,181.809z"/>
		<path fill="#6FDCB4" d="M193.386,165.723c0.273-0.82,0.713-1.523,1.318-2.109s1.27-1.084,1.992-1.494s1.475-0.752,2.256-1.025
			s1.523-0.508,2.227-0.703c1.563-0.664,3.232-1.299,5.01-1.904s3.594-1.143,5.449-1.611s3.76-0.771,5.713-0.908
			s4.004,0.107,6.152,0.732c0.117,0.391,0.293,0.762,0.527,1.113s0.479,0.703,0.732,1.055s0.479,0.693,0.674,1.025
			s0.313,0.674,0.352,1.025c0.391,0.352,0.703,0.732,0.938,1.143s0.273,0.947,0.117,1.611c-0.391,0.313-0.771,0.596-1.143,0.85
			s-0.771,0.479-1.201,0.674c-1.445-0.352-2.91-0.469-4.395-0.352s-2.813,0.215-3.984,0.293c-0.352-0.352-0.771-0.527-1.26-0.527
			s-0.996,0.078-1.523,0.234s-1.055,0.313-1.582,0.469s-1.025,0.195-1.494,0.117c-0.391,0.313-0.869,0.518-1.436,0.615
			s-1.182,0.186-1.846,0.264c-0.039,0.195,0,0.322,0.117,0.381s0.137,0.186,0.059,0.381c0.234,0.273,0.537,0.469,0.908,0.586
			s0.762,0.234,1.172,0.352s0.771,0.264,1.084,0.439s0.527,0.459,0.645,0.85c0.586,0,1.094,0.137,1.523,0.41
			s0.781,0.605,1.055,0.996s0.479,0.811,0.615,1.26s0.205,0.85,0.205,1.201c0.117,0.313,0.254,0.449,0.41,0.41
			s0.332,0.039,0.527,0.234c0.117,0.508,0.41,1.025,0.879,1.553s0.84,1.104,1.113,1.729c0.078,0.977,0.137,1.846,0.176,2.607
			s-0.098,1.533-0.41,2.314c-0.586,1.445-1.396,2.734-2.432,3.867s-2.207,2.139-3.516,3.018s-2.705,1.631-4.189,2.256
			s-2.93,1.152-4.336,1.582c-0.156-0.039-0.313-0.039-0.469,0s-0.195-0.059-0.117-0.293c-0.313,0.273-0.654,0.449-1.025,0.527
			s-0.771,0.107-1.201,0.088s-0.869-0.049-1.318-0.088s-0.869-0.02-1.26,0.059c-0.273-0.273-0.518-0.537-0.732-0.791
			s-0.381-0.576-0.498-0.967c-0.195,0-0.283-0.098-0.264-0.293s-0.049-0.293-0.205-0.293c0.234-0.391,0.342-0.615,0.322-0.674
			s-0.078-0.107-0.176-0.146s-0.186-0.088-0.264-0.146s-0.098-0.146-0.059-0.264c0.156-0.313,0.215-0.674,0.176-1.084
			s-0.078-0.83-0.117-1.26s-0.01-0.84,0.088-1.23s0.381-0.703,0.85-0.938c1.328,0.156,2.588,0.107,3.779-0.146
			s2.314-0.615,3.369-1.084s2.061-0.977,3.018-1.523s1.904-1.035,2.842-1.465c0.117-0.352,0.283-0.645,0.498-0.879
			s0.439-0.449,0.674-0.645s0.449-0.41,0.645-0.645s0.332-0.527,0.41-0.879c0.039-0.273-0.029-0.439-0.205-0.498
			s-0.264-0.205-0.264-0.439l-0.645-0.176c-0.742-0.43-1.582-0.791-2.52-1.084s-1.738-0.615-2.402-0.967
			c-0.43,0.234-0.83,0.293-1.201,0.176s-0.85-0.234-1.436-0.352c-1.328-0.078-2.607-0.215-3.838-0.41s-2.412-0.547-3.545-1.055
			c-0.078-0.195-0.176-0.371-0.293-0.527s-0.332-0.195-0.645-0.117c-0.234-0.313-0.469-0.615-0.703-0.908s-0.449-0.615-0.645-0.967
			c0.078-0.469,0.137-0.869,0.176-1.201s-0.078-0.654-0.352-0.967c0.156-0.508,0.273-0.918,0.352-1.23
			S193.464,166.23,193.386,165.723z"/>
	</g>
</g>
<g>
	<path d="M6.68,15.82c-1.641-0.664-2.998-1.602-4.072-2.813S0.664,10.371,0,8.73c0.391-1.055,1.016-1.943,1.875-2.666
		s1.826-1.338,2.9-1.846s2.217-0.918,3.428-1.23s2.383-0.586,3.516-0.82c0.234,0.078,0.352,0.078,0.352,0s0.098-0.039,0.293,0.117
		c1.406-0.43,3.027-0.85,4.863-1.26s3.789-0.557,5.859-0.439c0.273-0.156,0.605-0.244,0.996-0.264s0.801-0.029,1.23-0.029
		s0.84-0.01,1.23-0.029s0.723-0.088,0.996-0.205c0.234,0.273,0.586,0.439,1.055,0.498s0.957,0.264,1.465,0.615
		c0.156,0.039,0.156-0.029,0-0.205s-0.137-0.303,0.059-0.381c0.508,0,0.957,0.117,1.348,0.352s0.752,0.498,1.084,0.791
		s0.645,0.557,0.938,0.791s0.615,0.352,0.967,0.352c0.352,0.43,0.771,0.83,1.26,1.201s0.957,0.752,1.406,1.143
		s0.82,0.82,1.113,1.289s0.439,0.996,0.439,1.582c-0.039,0.234,0.039,0.371,0.234,0.41s0.332,0.156,0.41,0.352
		c0.039,1.445-0.186,2.695-0.674,3.75s-1.104,2.021-1.846,2.9s-1.533,1.709-2.373,2.49s-1.611,1.621-2.314,2.52
		c0.469,0.586,1.006,1.123,1.611,1.611s1.221,0.967,1.846,1.436s1.221,0.967,1.787,1.494s1.045,1.123,1.436,1.787
		c0.117,0.234,0.371,0.391,0.762,0.469c0.117,0.469,0.283,0.947,0.498,1.436s0.42,0.957,0.615,1.406s0.313,0.85,0.352,1.201
		s-0.059,0.645-0.293,0.879c0.273,0.156,0.43,0.4,0.469,0.732s0.039,0.596,0,0.791c-0.859,1.055-1.445,1.797-1.758,2.227
		s-0.547,0.742-0.703,0.938s-0.313,0.371-0.469,0.527s-0.508,0.469-1.055,0.938c-2.07,1.25-4.229,2.373-6.475,3.369
		s-4.58,1.67-7.002,2.021c-0.195,0.273-0.479,0.498-0.85,0.674s-0.791,0.322-1.26,0.439s-0.967,0.215-1.494,0.293
		s-1.006,0.156-1.436,0.234c-0.195-0.078-0.303-0.205-0.322-0.381s-0.127-0.303-0.322-0.381c-0.039,0.469-0.244,0.713-0.615,0.732
		s-0.83-0.068-1.377-0.264s-1.113-0.469-1.699-0.82s-1.094-0.684-1.523-0.996c-0.195,0.352-0.439,0.723-0.732,1.113
		s-0.596,0.664-0.908,0.82c-0.547-0.078-0.947-0.137-1.201-0.176s-0.498,0.059-0.732,0.293c-0.313-0.156-0.547-0.322-0.703-0.498
		s-0.313-0.352-0.469-0.527s-0.332-0.332-0.527-0.469S7.07,43.594,6.68,43.477c0.078-0.195,0.02-0.498-0.176-0.908
		s-0.469-0.654-0.82-0.732c0.195-0.313,0.117-0.713-0.234-1.201s-0.625-1.045-0.82-1.67c0.039-0.273,0.068-0.557,0.088-0.85
		s0.059-0.566,0.117-0.82s0.146-0.479,0.264-0.674s0.313-0.332,0.586-0.41c-0.039-0.508-0.195-0.996-0.469-1.465
		c0.352-0.273,0.586-0.615,0.703-1.025s0.225-0.83,0.322-1.26s0.225-0.85,0.381-1.26s0.41-0.752,0.762-1.025
		c-0.078-0.117-0.156-0.215-0.234-0.293s-0.117-0.215-0.117-0.41c0.586-0.977,0.996-1.807,1.23-2.49s0.42-1.348,0.557-1.992
		s0.283-1.338,0.439-2.08s0.469-1.68,0.938-2.813c-0.039-0.703,0.039-1.328,0.234-1.875s0.4-1.084,0.615-1.611
		s0.381-1.084,0.498-1.67s0.098-1.27-0.059-2.051c-0.664,0.078-1.143,0.313-1.436,0.703s-0.479,0.918-0.557,1.582
		c-0.352,0.313-0.801,0.459-1.348,0.439S7.109,15.664,6.68,15.82z M28.359,8.789c-2.422-0.078-4.805,0.137-7.148,0.645
		s-4.316,1.25-5.918,2.227c0.781,0.664,1.592,1.25,2.432,1.758s1.475,1.191,1.904,2.051c1.875-0.742,3.516-1.689,4.922-2.842
		S27.227,10.195,28.359,8.789z M32.461,27.129c-1.484-0.82-2.842-1.309-4.072-1.465s-2.402-0.146-3.516,0.029
		s-2.178,0.42-3.193,0.732s-2.031,0.547-3.047,0.703c-0.508,1.328-1.035,2.793-1.582,4.395s-1.074,3.164-1.582,4.688
		c1.406-0.195,2.695-0.488,3.867-0.879s2.305-0.83,3.398-1.318s2.168-0.977,3.223-1.465s2.148-0.947,3.281-1.377
		c0.117-0.469,0.371-0.84,0.762-1.113s0.781-0.537,1.172-0.791s0.723-0.537,0.996-0.85S32.539,27.676,32.461,27.129z"/>
	<path d="M74.004,39.199c-0.234,0.664-0.576,1.338-1.025,2.021s-0.977,1.289-1.582,1.816s-1.279,0.967-2.021,1.318
		s-1.523,0.547-2.344,0.586c-0.508-0.117-0.85-0.244-1.025-0.381s-0.361-0.264-0.557-0.381c-0.117-0.078-0.225-0.146-0.322-0.205
		s-0.186-0.107-0.264-0.146l-0.703-0.293l0.234-0.762c0.078-0.313,0.059-0.557-0.059-0.732s-0.352-0.42-0.703-0.732
		c-0.117-0.117-0.234-0.234-0.352-0.352s-0.215-0.234-0.293-0.352l-0.996-1.113l1.582-0.41c0.977-0.273,1.631-0.625,1.963-1.055
		s0.459-1.152,0.381-2.168c-0.781-0.156-1.436-0.176-1.963-0.059s-1.064,0.254-1.611,0.41c-0.703,0.195-1.416,0.361-2.139,0.498
		s-1.514,0.205-2.373,0.205c-0.313,0-0.605-0.01-0.879-0.029s-0.566-0.049-0.879-0.088l-0.586-0.117
		c-0.078-0.43-0.156-0.674-0.234-0.732s-0.156-0.127-0.234-0.205c-0.195-0.195-0.4-0.459-0.615-0.791s-0.264-0.752-0.146-1.26
		c-0.195-0.352-0.313-0.703-0.352-1.055c-0.234,0.469-0.41,0.957-0.527,1.465l-0.234,0.586l-0.586,0.117
		c-0.078,0.039-0.137,0.127-0.176,0.264s-0.059,0.244-0.059,0.322l-0.293,0.996c-0.078,0.078-0.156,0.146-0.234,0.205
		s-0.156,0.127-0.234,0.205c-0.078,0.352-0.176,0.703-0.293,1.055s-0.234,0.684-0.352,0.996c-0.195,0.508-0.361,1.006-0.498,1.494
		s-0.186,0.967-0.146,1.436l-0.234,0.645c-0.195,0.234-0.41,0.42-0.645,0.557s-0.469,0.264-0.703,0.381
		c-0.078,0.078-0.186,0.146-0.322,0.205s-0.244,0.107-0.322,0.146l-0.176,0.645l-0.703,0.117c-0.43,0.078-0.732,0.137-0.908,0.176
		s-0.381,0.059-0.615,0.059l-0.586-0.059c-0.43-0.352-0.762-0.635-0.996-0.85s-0.508-0.42-0.82-0.615
		c-0.352-0.469-0.547-0.82-0.586-1.055s-0.078-0.449-0.117-0.645c-0.078-0.234-0.127-0.43-0.146-0.586s-0.068-0.273-0.146-0.352
		l-0.762-0.703l0.645-0.527l0.059-0.996c0.781-1.992,1.611-3.906,2.49-5.742s1.787-3.711,2.725-5.625
		c0.313-0.625,0.615-1.25,0.908-1.875s0.596-1.25,0.908-1.875c-0.039-0.117-0.059-0.254-0.059-0.41s0.039-0.332,0.117-0.527
		c0.43-0.664,0.781-1.26,1.055-1.787s0.547-1.064,0.82-1.611c0.313-0.664,0.635-1.309,0.967-1.934s0.752-1.27,1.26-1.934l0.938-0.41
		c0.117-0.039,0.254-0.088,0.41-0.146s0.332-0.088,0.527-0.088l0.879,0.117c1.094-0.508,2.051-1.221,2.871-2.139
		s1.66-2.021,2.52-3.311l0.586-0.82l0.762,0.469c0.195,0.117,0.469,0.225,0.82,0.322s0.723,0.205,1.113,0.322
		c0.703,0.156,1.367,0.332,1.992,0.527s1.133,0.488,1.523,0.879c0.234,0.625,0.371,1.094,0.41,1.406s0.098,0.625,0.176,0.938
		c0.117,0.664,0.225,1.328,0.322,1.992s0.166,1.406,0.205,2.227c0.195,0.664,0.361,1.318,0.498,1.963s0.264,1.299,0.381,1.963
		c0.195,0.938,0.391,1.846,0.586,2.725s0.449,1.709,0.762,2.49c0.313,0,0.508,0.02,0.586,0.059c0.195-0.078,0.4-0.137,0.615-0.176
		s0.459-0.078,0.732-0.117l0.645-0.059l0.234,0.586c0.039,0.195,0.234,0.391,0.586,0.586c0.508,0.039,0.879,0.146,1.113,0.322
		s0.449,0.361,0.645,0.557c0.156,0.156,0.313,0.273,0.469,0.352l0.879,0.352l-0.469,0.879c-0.391,0.703-0.947,1.377-1.67,2.021
		s-1.533,1.182-2.432,1.611c0.039,0.234,0.068,0.459,0.088,0.674s0.068,0.439,0.146,0.674c0.117,0.664,0.215,1.348,0.293,2.051
		s0.078,1.426,0,2.168L74.004,39.199z M57.07,29.063c1.172-0.078,2.236-0.166,3.193-0.264s2.021-0.264,3.193-0.498
		c-0.273-1.172-0.566-2.393-0.879-3.662s-0.645-2.529-0.996-3.779l-0.352,0.586c-0.781,0.82-1.533,1.738-2.256,2.754
		s-1.338,1.973-1.846,2.871c-0.234,0.352-0.469,0.703-0.703,1.055s-0.449,0.703-0.645,1.055c0.234-0.039,0.459-0.059,0.674-0.059
		S56.875,29.102,57.07,29.063z"/>
	<path d="M108.223,15.938c-0.977,0-2.031,0.068-3.164,0.205s-2.246,0.283-3.34,0.439c-0.781,0.117-1.533,0.215-2.256,0.293
		s-1.377,0.137-1.963,0.176c-0.273,0.859-0.547,1.621-0.82,2.285s-0.566,1.309-0.879,1.934c-0.313,0.664-0.596,1.338-0.85,2.021
		s-0.498,1.416-0.732,2.197c-0.391,0.625-0.713,1.201-0.967,1.729s-0.459,1.123-0.615,1.787c-0.469,0.586-0.82,1.201-1.055,1.846
		s-0.41,1.201-0.527,1.67l-0.234,0.703c-0.234,0.234-0.371,0.42-0.41,0.557s-0.137,0.264-0.293,0.381
		c-0.039,0.43-0.176,0.859-0.41,1.289c-0.078,0.195-0.137,0.381-0.176,0.557s-0.059,0.303-0.059,0.381
		c0,0.391-0.098,0.645-0.293,0.762c0.039,0.195,0.039,0.4,0,0.615s-0.078,0.42-0.117,0.615c-0.117,0.469-0.156,0.84-0.117,1.113
		c0.117,0.156,0.225,0.293,0.322,0.41s0.166,0.273,0.205,0.469c0.234,0.156,0.41,0.254,0.527,0.293
		c0.156,0.117,0.391,0.254,0.703,0.41l0.527,0.586c0.195,1.133,0.02,2.031-0.527,2.695c-0.586,0.742-1.582,1.113-2.988,1.113h-0.703
		c-0.195-0.195-0.313-0.352-0.352-0.469c-0.313-0.117-0.566-0.215-0.762-0.293s-0.371-0.234-0.527-0.469
		c-0.508-0.234-0.918-0.43-1.23-0.586l-0.527-0.293c0-0.43,0-0.664,0-0.703c-0.273-0.352-0.479-0.742-0.615-1.172
		s-0.244-0.859-0.322-1.289c-0.078-0.352-0.166-0.684-0.264-0.996s-0.225-0.586-0.381-0.82c-0.078-2.266,0.137-4.18,0.645-5.742
		s1.035-3.066,1.582-4.512c0.313-0.781,0.625-1.572,0.938-2.373s0.586-1.631,0.82-2.49l0.527-0.586
		c0.273-0.625,0.498-1.143,0.674-1.553s0.361-0.83,0.557-1.26c0.117-0.273,0.225-0.537,0.322-0.791s0.186-0.479,0.264-0.674
		c-0.234,0-0.449,0.01-0.645,0.029s-0.391,0.049-0.586,0.088c-0.234,0.039-0.449,0.068-0.645,0.088s-0.391,0.029-0.586,0.029
		c-0.273,0-0.469-0.02-0.586-0.059c-0.43,0.195-0.898,0.293-1.406,0.293H83.32c-0.117,0-0.225-0.01-0.322-0.029
		s-0.186-0.029-0.264-0.029c-0.391,0-0.703,0.059-0.938,0.176c-0.469,0-0.918,0-1.348,0h-0.586c-0.078,0-0.176,0.01-0.293,0.029
		s-0.215,0.029-0.293,0.029c-0.273,0-0.566-0.029-0.879-0.088s-0.645-0.186-0.996-0.381c-0.469-0.625-0.781-0.957-0.938-0.996
		l-0.527-0.703c-0.039-0.234-0.098-0.459-0.176-0.674s-0.156-0.459-0.234-0.732c-0.156-0.391-0.303-0.811-0.439-1.26
		s-0.205-0.986-0.205-1.611c0.039-0.313,0.117-0.547,0.234-0.703s0.215-0.293,0.293-0.41l0.176-0.879l0.762,0.059h1.641
		c1.25,0,2.52-0.049,3.809-0.146s2.617-0.205,3.984-0.322c0.781-0.078,1.572-0.156,2.373-0.234s1.631-0.156,2.49-0.234
		c0.156-0.352,0.313-0.684,0.469-0.996l0.586-0.293c0.703-0.039,1.201,0.049,1.494,0.264s0.537,0.42,0.732,0.615
		c0.859-0.078,1.729-0.166,2.607-0.264s1.768-0.225,2.666-0.381c1.328-0.195,2.666-0.371,4.014-0.527s2.646-0.234,3.896-0.234
		c0.547,0,1.074,0.02,1.582,0.059s0.977,0.098,1.406,0.176l0.586,0.41c0.117,0.234,0.283,0.449,0.498,0.645s0.439,0.391,0.674,0.586
		c0.469,0.43,0.938,0.938,1.406,1.523s0.645,1.445,0.527,2.578c-0.313,0.469-0.547,0.742-0.703,0.82l-0.527,0.703l-0.586-0.059
		c-0.234,0-0.449,0.029-0.645,0.088s-0.391,0.127-0.586,0.205c-0.156,0.078-0.313,0.146-0.469,0.205s-0.332,0.107-0.527,0.146
		c-0.352,0-0.635-0.01-0.85-0.029S108.457,15.938,108.223,15.938z"/>
	<path d="M136.992,15.938c-0.977,0-2.031,0.068-3.164,0.205s-2.246,0.283-3.34,0.439c-0.781,0.117-1.533,0.215-2.256,0.293
		s-1.377,0.137-1.963,0.176c-0.273,0.859-0.547,1.621-0.82,2.285s-0.566,1.309-0.879,1.934c-0.313,0.664-0.596,1.338-0.85,2.021
		s-0.498,1.416-0.732,2.197c-0.391,0.625-0.713,1.201-0.967,1.729s-0.459,1.123-0.615,1.787c-0.469,0.586-0.82,1.201-1.055,1.846
		s-0.41,1.201-0.527,1.67l-0.234,0.703c-0.234,0.234-0.371,0.42-0.41,0.557s-0.137,0.264-0.293,0.381
		c-0.039,0.43-0.176,0.859-0.41,1.289c-0.078,0.195-0.137,0.381-0.176,0.557s-0.059,0.303-0.059,0.381
		c0,0.391-0.098,0.645-0.293,0.762c0.039,0.195,0.039,0.4,0,0.615s-0.078,0.42-0.117,0.615c-0.117,0.469-0.156,0.84-0.117,1.113
		c0.117,0.156,0.225,0.293,0.322,0.41s0.166,0.273,0.205,0.469c0.234,0.156,0.41,0.254,0.527,0.293
		c0.156,0.117,0.391,0.254,0.703,0.41L120,41.66c0.195,1.133,0.02,2.031-0.527,2.695c-0.586,0.742-1.582,1.113-2.988,1.113h-0.703
		c-0.195-0.195-0.313-0.352-0.352-0.469c-0.313-0.117-0.566-0.215-0.762-0.293s-0.371-0.234-0.527-0.469
		c-0.508-0.234-0.918-0.43-1.23-0.586l-0.527-0.293c0-0.43,0-0.664,0-0.703c-0.273-0.352-0.479-0.742-0.615-1.172
		s-0.244-0.859-0.322-1.289c-0.078-0.352-0.166-0.684-0.264-0.996s-0.225-0.586-0.381-0.82c-0.078-2.266,0.137-4.18,0.645-5.742
		s1.035-3.066,1.582-4.512c0.313-0.781,0.625-1.572,0.938-2.373s0.586-1.631,0.82-2.49l0.527-0.586
		c0.273-0.625,0.498-1.143,0.674-1.553s0.361-0.83,0.557-1.26c0.117-0.273,0.225-0.537,0.322-0.791s0.186-0.479,0.264-0.674
		c-0.234,0-0.449,0.01-0.645,0.029s-0.391,0.049-0.586,0.088c-0.234,0.039-0.449,0.068-0.645,0.088s-0.391,0.029-0.586,0.029
		c-0.273,0-0.469-0.02-0.586-0.059c-0.43,0.195-0.898,0.293-1.406,0.293h-0.586c-0.117,0-0.225-0.01-0.322-0.029
		s-0.186-0.029-0.264-0.029c-0.391,0-0.703,0.059-0.938,0.176c-0.469,0-0.918,0-1.348,0h-0.586c-0.078,0-0.176,0.01-0.293,0.029
		s-0.215,0.029-0.293,0.029c-0.273,0-0.566-0.029-0.879-0.088s-0.645-0.186-0.996-0.381c-0.469-0.625-0.781-0.957-0.938-0.996
		l-0.527-0.703c-0.039-0.234-0.098-0.459-0.176-0.674s-0.156-0.459-0.234-0.732c-0.156-0.391-0.303-0.811-0.439-1.26
		s-0.205-0.986-0.205-1.611c0.039-0.313,0.117-0.547,0.234-0.703s0.215-0.293,0.293-0.41l0.176-0.879l0.762,0.059h1.641
		c1.25,0,2.52-0.049,3.809-0.146s2.617-0.205,3.984-0.322c0.781-0.078,1.572-0.156,2.373-0.234s1.631-0.156,2.49-0.234
		c0.156-0.352,0.313-0.684,0.469-0.996l0.586-0.293c0.703-0.039,1.201,0.049,1.494,0.264s0.537,0.42,0.732,0.615
		c0.859-0.078,1.729-0.166,2.607-0.264s1.768-0.225,2.666-0.381c1.328-0.195,2.666-0.371,4.014-0.527s2.646-0.234,3.896-0.234
		c0.547,0,1.074,0.02,1.582,0.059s0.977,0.098,1.406,0.176l0.586,0.41c0.117,0.234,0.283,0.449,0.498,0.645s0.439,0.391,0.674,0.586
		c0.469,0.43,0.938,0.938,1.406,1.523s0.645,1.445,0.527,2.578c-0.313,0.469-0.547,0.742-0.703,0.82l-0.527,0.703l-0.586-0.059
		c-0.234,0-0.449,0.029-0.645,0.088s-0.391,0.127-0.586,0.205c-0.156,0.078-0.313,0.146-0.469,0.205s-0.332,0.107-0.527,0.146
		c-0.352,0-0.635-0.01-0.85-0.029S137.227,15.938,136.992,15.938z"/>
	<path d="M147.891,43.477c-1.094,0.352-2.285,0.703-3.574,1.055s-2.578,0.527-3.867,0.527c-1.953,0-3.496-0.488-4.629-1.465
		c-0.195-0.43-0.371-0.723-0.527-0.879c-0.117-0.156-0.225-0.322-0.322-0.498s-0.166-0.42-0.205-0.732
		c-0.469-0.547-0.84-1.182-1.113-1.904s-0.459-1.465-0.557-2.227s-0.117-1.533-0.059-2.314s0.186-1.523,0.381-2.227
		c0.078-0.156,0.127-0.313,0.146-0.469s0.049-0.332,0.088-0.527c0.156-0.625,0.322-1.23,0.498-1.816s0.42-1.094,0.732-1.523
		c-0.156-0.352-0.156-0.742,0-1.172s0.332-0.82,0.527-1.172c0.547-1.484,1.006-2.744,1.377-3.779s0.752-2.061,1.143-3.076
		c0.664-1.758,1.289-3.496,1.875-5.215s1.113-3.574,1.582-5.566c0.313-0.195,0.547-0.332,0.703-0.41
		c0.234-0.078,0.43-0.137,0.586-0.176c0.703,0.352,1.523,0.693,2.461,1.025s1.719,0.498,2.344,0.498
		c0.313,0.195,0.508,0.342,0.586,0.439s0.156,0.186,0.234,0.264c0.43,0.508,0.801,1.025,1.113,1.553s0.41,1.221,0.293,2.08
		c-0.234,0.352-0.41,0.527-0.527,0.527c-0.195,0.781-0.4,1.445-0.615,1.992s-0.439,1.094-0.674,1.641
		c-0.273,0.586-0.527,1.172-0.762,1.758s-0.43,1.309-0.586,2.168c-0.156,0.195-0.264,0.371-0.322,0.527s-0.127,0.332-0.205,0.527
		s-0.166,0.4-0.264,0.615s-0.244,0.4-0.439,0.557c-0.117,1.016-0.303,1.836-0.557,2.461s-0.518,1.25-0.791,1.875
		c-0.469,1.133-0.889,2.266-1.26,3.398s-0.596,2.422-0.674,3.867c0.195-0.078,0.381-0.117,0.557-0.117s0.342,0,0.498,0
		c0.352,0,0.762,0.059,1.23,0.176c1.172-0.625,2.451-0.996,3.838-1.113s2.764-0.195,4.131-0.234c0.547,0,1.094,0,1.641,0
		s1.055-0.039,1.523-0.117c0.352,0.195,0.576,0.303,0.674,0.322s0.244,0.029,0.439,0.029c0.273,0,0.508,0.02,0.703,0.059
		c0.469,0.43,0.918,0.742,1.348,0.938s0.879,0.371,1.348,0.527c0.43,0.156,0.85,0.322,1.26,0.498s0.811,0.42,1.201,0.732l0.41,2.52
		c0.273,0.352,0.391,0.586,0.352,0.703c0,0.313-0.078,0.547-0.234,0.703l0.117,0.645c-0.586,0.117-0.986,0.254-1.201,0.41
		s-0.42,0.332-0.615,0.527c-0.313,0.039-0.537,0.059-0.674,0.059s-0.264,0-0.381,0c-0.547,0-1.211,0.098-1.992,0.293
		c-1.055-0.352-2.148-0.527-3.281-0.527c-0.43,0-0.879,0.02-1.348,0.059s-0.938,0.078-1.406,0.117
		c-0.469,0.078-0.947,0.137-1.436,0.176s-0.986,0.059-1.494,0.059L147.891,43.477z"/>
	<path d="M197.109,11.133c0.039,0.273,0.049,0.479,0.029,0.615s-0.039,0.264-0.059,0.381s-0.029,0.244-0.029,0.381
		s0.039,0.342,0.117,0.615c-0.82,1.328-1.768,2.236-2.842,2.725s-2.236,0.84-3.486,1.055s-2.529,0.439-3.838,0.674
		s-2.607,0.742-3.896,1.523c-0.508-0.195-0.967-0.195-1.377,0s-1.006,0.254-1.787,0.176c-0.234,0.234-0.527,0.4-0.879,0.498
		s-0.703,0.205-1.055,0.322c0.156,0.352,0.225,0.713,0.205,1.084s0.029,0.674,0.146,0.908c1.367,0.117,2.881,0.098,4.541-0.059
		s3.291-0.254,4.893-0.293c0.039,0.195,0.02,0.322-0.059,0.381s-0.098,0.166-0.059,0.322c0.273,0.195,0.547,0.439,0.82,0.732
		s0.547,0.576,0.82,0.85s0.557,0.498,0.85,0.674s0.635,0.244,1.025,0.205c0.156,0.313,0.264,0.654,0.322,1.025
		s0.01,0.752-0.146,1.143c-0.625,0.43-1.25,0.869-1.875,1.318s-1.279,0.85-1.963,1.201s-1.406,0.635-2.168,0.85
		s-1.611,0.303-2.549,0.264c-0.195,0-0.342,0-0.439,0s-0.225-0.059-0.381-0.176c-0.313,0.195-0.752,0.254-1.318,0.176
		s-1.006-0.02-1.318,0.176c-0.43-0.195-0.947-0.283-1.553-0.264s-1.143-0.049-1.611-0.205c-0.625,0.82-1.191,1.699-1.699,2.637
		s-0.957,1.934-1.348,2.988c1.328,0.195,2.432,0.273,3.311,0.234s1.709-0.107,2.49-0.205s1.582-0.195,2.402-0.293
		s1.855-0.127,3.105-0.088c0.781-0.43,1.709-0.713,2.783-0.85s2.061-0.361,2.959-0.674c0.313,0.117,0.586,0.322,0.82,0.615
		s0.459,0.566,0.674,0.82s0.439,0.479,0.674,0.674s0.527,0.273,0.879,0.234c0.156,0.156,0.264,0.342,0.322,0.557
		s0.107,0.42,0.146,0.615s0.107,0.361,0.205,0.498s0.264,0.186,0.498,0.146c-0.586,1.289-1.26,2.275-2.021,2.959
		s-1.631,1.201-2.607,1.553s-2.061,0.625-3.252,0.82s-2.51,0.43-3.955,0.703c-0.352,0.078-0.645,0.068-0.879-0.029
		s-0.508-0.146-0.82-0.146c-0.898,0.195-1.973,0.371-3.223,0.527s-2.52,0.215-3.809,0.176s-2.52-0.205-3.691-0.498
		s-2.129-0.811-2.871-1.553c-0.313-0.273-0.518-0.596-0.615-0.967s-0.361-0.654-0.791-0.85c-0.039-0.508-0.117-1.074-0.234-1.699
		s-0.234-1.279-0.352-1.963s-0.205-1.357-0.264-2.021s-0.029-1.27,0.088-1.816c0.117-0.586,0.361-1.113,0.732-1.582
		s0.498-0.977,0.381-1.523c0.195-0.039,0.313-0.146,0.352-0.322s0.195-0.244,0.469-0.205c0.234-0.703,0.488-1.367,0.762-1.992
		s0.557-1.23,0.85-1.816s0.586-1.182,0.879-1.787s0.576-1.279,0.85-2.021c-0.547-0.508-0.947-1.064-1.201-1.67
		s-0.439-1.211-0.557-1.816s-0.215-1.23-0.293-1.875s-0.215-1.299-0.41-1.963c0.391-0.586,0.869-1.064,1.436-1.436
		s1.182-0.674,1.846-0.908s1.387-0.43,2.168-0.586s1.602-0.332,2.461-0.527c1.563-0.508,2.959-0.898,4.189-1.172
		s2.441-0.498,3.633-0.674s2.432-0.342,3.721-0.498s2.754-0.391,4.395-0.703c0.352,0.352,0.684,0.527,0.996,0.527
		c0.156-0.352,0.342-0.459,0.557-0.322s0.303,0.029,0.264-0.322c0.391,0.664,0.889,1.221,1.494,1.67S196.367,10.82,197.109,11.133z"
		/>
	<path d="M223.184,44.941c-0.391,0-0.996-0.059-1.816-0.176c-0.625-0.664-1.182-1.572-1.67-2.725s-0.859-2.383-1.113-3.691
		s-0.371-2.617-0.352-3.926s0.244-2.471,0.674-3.486c0-0.039,0.186-0.508,0.557-1.406s0.85-2.041,1.436-3.428s1.25-2.93,1.992-4.629
		s1.484-3.369,2.227-5.01s1.455-3.135,2.139-4.482s1.279-2.393,1.787-3.135c0.352-0.547,0.674-1.074,0.967-1.582
		s0.576-0.977,0.85-1.406c0.43-0.703,0.83-1.357,1.201-1.963s0.781-1.152,1.23-1.641s0.947-0.918,1.494-1.289
		s1.211-0.693,1.992-0.967c0.469,0.195,0.879,0.4,1.23,0.615s0.664,0.479,0.938,0.791l0.176,0.82
		c0.078,0.273,0.205,0.459,0.381,0.557s0.322,0.146,0.439,0.146c0.508,0.117,0.947,0.244,1.318,0.381s0.771,0.225,1.201,0.264
		c0.156,0.234,0.303,0.469,0.439,0.703s0.283,0.449,0.439,0.645c0.781,1.133,1.426,2.227,1.934,3.281s0.508,2.207,0,3.457
		l0.059,0.645c0.195,0.273,0.293,0.527,0.293,0.762s-0.039,0.566-0.117,0.996c-0.039,0.313-0.068,0.654-0.088,1.025
		s0.029,0.771,0.146,1.201l0.41,0.469c0.625,0.313,1.23,0.469,1.816,0.469c0.781,0,1.484-0.176,2.109-0.527s1.211-0.703,1.758-1.055
		c0.43-0.313,0.83-0.566,1.201-0.762s0.732-0.332,1.084-0.41c0.82-0.781,1.572-1.475,2.256-2.08s1.396-1.221,2.139-1.846
		c1.406-1.133,2.773-2.354,4.102-3.662s2.383-2.939,3.164-4.893c0.43-0.273,0.918-0.41,1.465-0.41s1.094,0.107,1.641,0.322
		s1.094,0.459,1.641,0.732c0.117,0.078,0.225,0.137,0.322,0.176s0.205,0.098,0.322,0.176c0,0.43,0.176,0.82,0.527,1.172
		c0.195,0.156,0.332,0.254,0.41,0.293s0.156,0.078,0.234,0.117c0.313,0.195,0.576,0.371,0.791,0.527s0.381,0.371,0.498,0.645
		c0.352,1.055,0.938,1.875,1.758,2.461c-0.078,0.43-0.059,0.85,0.059,1.26s0.254,0.811,0.41,1.201
		c0.078,0.156,0.137,0.303,0.176,0.439s0.098,0.303,0.176,0.498l-1.289-0.117l0.176,1.289c0.117,0.664,0.068,1.406-0.146,2.227
		s-0.459,1.465-0.732,1.934c0.078,1.172,0.117,2.1,0.117,2.783s-0.039,1.318-0.117,1.904s-0.205,1.143-0.381,1.67
		s-0.4,1.084-0.674,1.67c0.156,2.969-0.186,5.684-1.025,8.145s-1.748,4.766-2.725,6.914c-0.117,0.273-0.234,0.527-0.352,0.762
		s-0.215,0.469-0.293,0.703c-0.43,0.117-0.82,0.254-1.172,0.41s-0.684,0.332-0.996,0.527c-0.43,0.273-0.859,0.498-1.289,0.674
		s-0.879,0.264-1.348,0.264c-1.875-1.367-2.842-3.73-2.9-7.09s0.654-7.637,2.139-12.832c0.273-0.195,0.391-0.488,0.352-0.879v-0.645
		l-0.586-0.059c-0.195,0-0.371,0.02-0.527,0.059s-0.273,0.215-0.352,0.527c-1.25,0.898-2.607,1.826-4.072,2.783
		s-2.979,1.836-4.541,2.637s-3.154,1.465-4.775,1.992s-3.193,0.791-4.717,0.791c-3.906,0-6.855-1.992-8.848-5.977l-0.527-1.055
		l-0.586,0.938c-0.117,0.195-0.322,0.576-0.615,1.143s-0.586,1.221-0.879,1.963s-0.547,1.504-0.762,2.285s-0.283,1.465-0.205,2.051
		c-0.469,0.43-0.928,0.918-1.377,1.465s-0.771,1.172-0.967,1.875c-0.078,0.195-0.098,0.381-0.059,0.557s0.098,0.361,0.176,0.557
		c-0.039,0.273-0.117,0.469-0.234,0.586s-0.254,0.234-0.41,0.352c-0.195,0.195-0.391,0.4-0.586,0.615s-0.371,0.459-0.527,0.732
		c-0.078,0.234-0.137,0.479-0.176,0.732s-0.078,0.479-0.117,0.674c0,0.43-0.059,0.723-0.176,0.879
		c-0.391,0.82-0.732,1.494-1.025,2.021s-0.576,0.928-0.85,1.201s-0.557,0.459-0.85,0.557S223.574,44.941,223.184,44.941z"/>
	<path d="M310.488,26.543c-0.039,0.469,0,0.918,0.117,1.348s0.264,0.85,0.439,1.26s0.342,0.83,0.498,1.26s0.273,0.859,0.352,1.289
		c0.078,0.547,0.078,1.143,0,1.787s-0.215,1.27-0.41,1.875s-0.449,1.152-0.762,1.641s-0.684,0.85-1.113,1.084
		c-0.547,0.703-1.211,1.25-1.992,1.641s-1.504,0.859-2.168,1.406c-0.43,0.273-0.908,0.469-1.436,0.586s-1.064,0.234-1.611,0.352
		c-0.43,0.234-0.938,0.479-1.523,0.732s-1.191,0.488-1.816,0.703s-1.25,0.371-1.875,0.469s-1.172,0.127-1.641,0.088
		c-1.172,0.43-2.314,0.713-3.428,0.85s-2.412,0.049-3.896-0.264c-1.406,0.195-2.705,0.137-3.896-0.176s-2.246-0.811-3.164-1.494
		s-1.719-1.504-2.402-2.461s-1.24-1.963-1.67-3.018c-0.313-2.227-0.234-4.248,0.234-6.064s1.143-3.496,2.021-5.039
		s1.885-2.969,3.018-4.277s2.227-2.588,3.281-3.838c0.234,0.078,0.42,0.068,0.557-0.029s0.264-0.234,0.381-0.41
		s0.244-0.342,0.381-0.498s0.303-0.254,0.498-0.293c0.273-0.586,0.674-1.025,1.201-1.318s0.947-0.713,1.26-1.26
		c0.352-0.078,0.645-0.195,0.879-0.352s0.459-0.332,0.674-0.527s0.439-0.381,0.674-0.557s0.508-0.303,0.82-0.381v-0.645
		c0.703-0.313,1.221-0.674,1.553-1.084s0.732-0.908,1.201-1.494c0.352-0.039,0.635-0.059,0.85-0.059s0.537-0.039,0.967-0.117
		c0.313-0.547,0.596-0.957,0.85-1.23s0.635-0.566,1.143-0.879c0.469,0.234,0.986,0.391,1.553,0.469s1.064,0.332,1.494,0.762
		c0.039,0.391,0.156,0.693,0.352,0.908s0.41,0.41,0.645,0.586s0.459,0.361,0.674,0.557s0.361,0.469,0.439,0.82
		c0.156,0.039,0.264,0.02,0.322-0.059s0.166-0.098,0.322-0.059c0.117,0.547,0.254,0.908,0.41,1.084s0.313,0.518,0.469,1.025
		c-0.195,0.391-0.342,0.791-0.439,1.201s-0.342,0.713-0.732,0.908c-0.039,0.273,0.039,0.42,0.234,0.439s0.313,0.127,0.352,0.322
		c0.039,0.352-0.02,0.605-0.176,0.762c0.938,1.523,1.777,3.135,2.52,4.834S309.551,25.02,310.488,26.543z M303.164,32.109
		c0.156-0.43,0.361-0.781,0.615-1.055s0.4-0.684,0.439-1.23c-0.195-0.313-0.313-0.557-0.352-0.732s-0.059-0.459-0.059-0.85
		c-0.859-1.211-1.602-2.51-2.227-3.896s-1.328-2.686-2.109-3.896c-0.078,0.156-0.215,0.313-0.41,0.469s-0.41,0.117-0.645-0.117
		c-0.078,0.313-0.215,0.537-0.41,0.674s-0.41,0.195-0.645,0.176s-0.479-0.078-0.732-0.176s-0.479-0.225-0.674-0.381
		c-1.133,0.898-2.266,1.777-3.398,2.637s-2.148,1.855-3.047,2.988c-0.156,0.078-0.254,0.107-0.293,0.088s-0.156,0.01-0.352,0.088
		c-0.313,0.742-0.693,1.416-1.143,2.021s-0.889,1.221-1.318,1.846s-0.801,1.289-1.113,1.992s-0.488,1.523-0.527,2.461
		c0.664,0.547,1.445,0.879,2.344,0.996s1.826,0.137,2.783,0.059s1.895-0.205,2.813-0.381s1.768-0.264,2.549-0.264
		c1.641-0.391,3.047-0.908,4.219-1.553S301.875,32.773,303.164,32.109z"/>
	<path d="M342.949,28.301c-0.039,0.195-0.078,0.361-0.117,0.498s-0.078,0.264-0.117,0.381s-0.059,0.264-0.059,0.439s0,0.4,0,0.674
		c-1.172,2.07-2.646,3.809-4.424,5.215s-3.73,2.646-5.859,3.721s-4.346,2.051-6.65,2.93s-4.551,1.826-6.738,2.842
		c-0.938-0.234-1.65-0.625-2.139-1.172s-0.859-1.182-1.113-1.904s-0.43-1.523-0.527-2.402s-0.186-1.787-0.264-2.725
		c0.117-0.43,0.283-0.791,0.498-1.084s0.322-0.713,0.322-1.26c0.313-1.016,0.625-2.012,0.938-2.988s0.508-1.973,0.586-2.988
		c0.117-0.313,0.332-0.527,0.645-0.645c0.195-1.875,0.205-3.779,0.029-5.713s-0.498-3.74-0.967-5.42
		c0.039-0.391,0.088-0.674,0.146-0.85s0.049-0.303-0.029-0.381C317.07,15.156,317.178,15,317.432,15s0.518,0,0.791,0
		c0-0.586-0.107-1.172-0.322-1.758s-0.42-1.25-0.615-1.992c0.273-0.586,0.449-1.162,0.527-1.729s0.254-1.064,0.527-1.494
		c2.109,0.664,4.131,1.465,6.064,2.402s3.838,1.621,5.713,2.051c1.406,1.016,2.852,2.021,4.336,3.018s2.832,2.09,4.043,3.281
		s2.227,2.549,3.047,4.072S342.832,26.191,342.949,28.301z M329.063,31.523c0.82-0.313,1.631-0.645,2.432-0.996
		s1.543-0.752,2.227-1.201s1.299-0.967,1.846-1.553s0.996-1.289,1.348-2.109c-0.234-0.469-0.547-0.889-0.938-1.26
		s-0.781-0.723-1.172-1.055s-0.771-0.674-1.143-1.025s-0.674-0.781-0.908-1.289c-0.508-0.078-0.957-0.225-1.348-0.439
		s-0.771-0.43-1.143-0.645s-0.762-0.42-1.172-0.615s-0.889-0.313-1.436-0.352c-0.859-0.43-1.631-0.742-2.314-0.938
		s-1.201-0.449-1.553-0.762c-0.273,0-0.488,0.059-0.645,0.176c0.391,1.484,0.684,2.881,0.879,4.189s0.303,2.617,0.322,3.926
		s-0.049,2.646-0.205,4.014s-0.371,2.852-0.645,4.453c0.391-0.039,0.752-0.127,1.084-0.264s0.664-0.283,0.996-0.439
		s0.684-0.303,1.055-0.439s0.811-0.225,1.318-0.264c0.117-0.234,0.283-0.43,0.498-0.586S328.867,31.719,329.063,31.523z"/>
	<path d="M375.996,11.133c0.039,0.273,0.049,0.479,0.029,0.615s-0.039,0.264-0.059,0.381s-0.029,0.244-0.029,0.381
		s0.039,0.342,0.117,0.615c-0.82,1.328-1.768,2.236-2.842,2.725s-2.236,0.84-3.486,1.055s-2.529,0.439-3.838,0.674
		s-2.607,0.742-3.896,1.523c-0.508-0.195-0.967-0.195-1.377,0s-1.006,0.254-1.787,0.176c-0.234,0.234-0.527,0.4-0.879,0.498
		s-0.703,0.205-1.055,0.322c0.156,0.352,0.225,0.713,0.205,1.084s0.029,0.674,0.146,0.908c1.367,0.117,2.881,0.098,4.541-0.059
		s3.291-0.254,4.893-0.293c0.039,0.195,0.02,0.322-0.059,0.381s-0.098,0.166-0.059,0.322c0.273,0.195,0.547,0.439,0.82,0.732
		s0.547,0.576,0.82,0.85s0.557,0.498,0.85,0.674s0.635,0.244,1.025,0.205c0.156,0.313,0.264,0.654,0.322,1.025
		s0.01,0.752-0.146,1.143c-0.625,0.43-1.25,0.869-1.875,1.318s-1.279,0.85-1.963,1.201s-1.406,0.635-2.168,0.85
		s-1.611,0.303-2.549,0.264c-0.195,0-0.342,0-0.439,0s-0.225-0.059-0.381-0.176c-0.313,0.195-0.752,0.254-1.318,0.176
		s-1.006-0.02-1.318,0.176c-0.43-0.195-0.947-0.283-1.553-0.264s-1.143-0.049-1.611-0.205c-0.625,0.82-1.191,1.699-1.699,2.637
		s-0.957,1.934-1.348,2.988c1.328,0.195,2.432,0.273,3.311,0.234s1.709-0.107,2.49-0.205s1.582-0.195,2.402-0.293
		s1.855-0.127,3.105-0.088c0.781-0.43,1.709-0.713,2.783-0.85s2.061-0.361,2.959-0.674c0.313,0.117,0.586,0.322,0.82,0.615
		s0.459,0.566,0.674,0.82s0.439,0.479,0.674,0.674s0.527,0.273,0.879,0.234c0.156,0.156,0.264,0.342,0.322,0.557
		s0.107,0.42,0.146,0.615s0.107,0.361,0.205,0.498s0.264,0.186,0.498,0.146c-0.586,1.289-1.26,2.275-2.021,2.959
		s-1.631,1.201-2.607,1.553s-2.061,0.625-3.252,0.82s-2.51,0.43-3.955,0.703c-0.352,0.078-0.645,0.068-0.879-0.029
		s-0.508-0.146-0.82-0.146c-0.898,0.195-1.973,0.371-3.223,0.527s-2.52,0.215-3.809,0.176s-2.52-0.205-3.691-0.498
		s-2.129-0.811-2.871-1.553c-0.313-0.273-0.518-0.596-0.615-0.967s-0.361-0.654-0.791-0.85c-0.039-0.508-0.117-1.074-0.234-1.699
		s-0.234-1.279-0.352-1.963s-0.205-1.357-0.264-2.021s-0.029-1.27,0.088-1.816c0.117-0.586,0.361-1.113,0.732-1.582
		s0.498-0.977,0.381-1.523c0.195-0.039,0.313-0.146,0.352-0.322s0.195-0.244,0.469-0.205c0.234-0.703,0.488-1.367,0.762-1.992
		s0.557-1.23,0.85-1.816s0.586-1.182,0.879-1.787s0.576-1.279,0.85-2.021c-0.547-0.508-0.947-1.064-1.201-1.67
		s-0.439-1.211-0.557-1.816s-0.215-1.23-0.293-1.875s-0.215-1.299-0.41-1.963c0.391-0.586,0.869-1.064,1.436-1.436
		s1.182-0.674,1.846-0.908s1.387-0.43,2.168-0.586s1.602-0.332,2.461-0.527c1.563-0.508,2.959-0.898,4.189-1.172
		s2.441-0.498,3.633-0.674s2.432-0.342,3.721-0.498s2.754-0.391,4.395-0.703c0.352,0.352,0.684,0.527,0.996,0.527
		c0.156-0.352,0.342-0.459,0.557-0.322s0.303,0.029,0.264-0.322c0.391,0.664,0.889,1.221,1.494,1.67S375.254,10.82,375.996,11.133z"
		/>
	<path d="M113.51,57.48l-0.253,2.77l2.769-0.711l0.144,0.896l-2.7,0.267l1.688,2.325l-0.848,0.485l-1.306-2.592l-1.23,2.592
		l-0.854-0.485l1.654-2.325l-2.666-0.267l0.13-0.896l2.741,0.711l-0.267-2.77H113.51z"/>
	<path d="M124.968,68.262c-1.144,0-1.979-0.429-2.502-1.285h-0.049l0.021,0.574c0.018,0.337,0.027,0.706,0.027,1.107v2.83h-0.678
		V60.691h0.574l0.131,1.063h0.041c0.51-0.802,1.326-1.203,2.447-1.203c1.004,0,1.769,0.329,2.295,0.987
		c0.526,0.659,0.79,1.617,0.79,2.875c0,1.222-0.277,2.168-0.831,2.84C126.682,67.926,125.926,68.262,124.968,68.262z M124.955,67.66
		c0.761,0,1.351-0.282,1.768-0.848c0.417-0.564,0.626-1.355,0.626-2.371c0-2.183-0.789-3.273-2.366-3.273
		c-0.866,0-1.503,0.238-1.908,0.714c-0.406,0.477-0.608,1.252-0.608,2.327v0.219c0,1.162,0.194,1.991,0.584,2.487
		C123.439,67.412,124.075,67.66,124.955,67.66z"/>
	<path d="M130.798,68.121h-0.677V57.48h0.677V68.121z"/>
	<path d="M137.796,68.121l-0.172-1.176h-0.055c-0.373,0.479-0.757,0.819-1.15,1.019c-0.395,0.198-0.86,0.298-1.397,0.298
		c-0.729,0-1.296-0.188-1.702-0.562c-0.405-0.374-0.607-0.893-0.607-1.554c0-0.726,0.302-1.29,0.905-1.691s1.477-0.614,2.62-0.637
		l1.414-0.041v-0.492c0-0.707-0.143-1.24-0.43-1.601c-0.287-0.359-0.75-0.54-1.388-0.54c-0.688,0-1.4,0.191-2.139,0.574
		l-0.253-0.588c0.815-0.382,1.622-0.572,2.42-0.572c0.814,0,1.424,0.212,1.827,0.636s0.604,1.085,0.604,1.983v4.943H137.796z
		 M135.063,67.645c0.792,0,1.418-0.227,1.875-0.681c0.458-0.454,0.687-1.085,0.687-1.892V64.34l-1.298,0.055
		c-1.043,0.05-1.786,0.214-2.23,0.489c-0.444,0.276-0.666,0.706-0.666,1.29c0,0.465,0.142,0.826,0.427,1.084
		S134.543,67.645,135.063,67.645z"/>
	<path d="M139.459,60.691h0.697l1.573,4.169c0.479,1.281,0.782,2.145,0.91,2.591h0.041c0.191-0.588,0.504-1.465,0.938-2.632
		l1.573-4.128h0.697l-3.331,8.636c-0.27,0.702-0.495,1.177-0.678,1.423c-0.182,0.246-0.396,0.431-0.639,0.554
		c-0.244,0.123-0.54,0.185-0.886,0.185c-0.261,0-0.55-0.048-0.869-0.145v-0.59c0.265,0.073,0.55,0.109,0.855,0.109
		c0.232,0,0.438-0.055,0.615-0.164s0.339-0.279,0.482-0.51c0.144-0.229,0.31-0.595,0.499-1.094s0.312-0.824,0.366-0.975
		L139.459,60.691z"/>
	<path d="M151.638,68.121l-0.17-1.176h-0.055c-0.374,0.479-0.758,0.819-1.152,1.019c-0.394,0.198-0.859,0.298-1.396,0.298
		c-0.729,0-1.296-0.188-1.701-0.562c-0.406-0.374-0.608-0.893-0.608-1.554c0-0.726,0.302-1.29,0.905-1.691s1.477-0.614,2.62-0.637
		l1.415-0.041v-0.492c0-0.707-0.145-1.24-0.431-1.601c-0.287-0.359-0.75-0.54-1.388-0.54c-0.688,0-1.4,0.191-2.139,0.574
		l-0.253-0.588c0.815-0.382,1.622-0.572,2.419-0.572c0.816,0,1.425,0.212,1.828,0.636s0.605,1.085,0.605,1.983v4.943H151.638z
		 M148.905,67.645c0.792,0,1.418-0.227,1.875-0.681c0.458-0.454,0.688-1.085,0.688-1.892V64.34l-1.299,0.055
		c-1.043,0.05-1.786,0.214-2.23,0.489c-0.444,0.276-0.666,0.706-0.666,1.29c0,0.465,0.143,0.826,0.427,1.084
		S148.386,67.645,148.905,67.645z"/>
	<path d="M157.685,60.551c1.04,0,1.823,0.327,2.35,0.981c0.526,0.653,0.79,1.609,0.79,2.867c0,1.235-0.277,2.188-0.831,2.857
		s-1.332,1.005-2.336,1.005c-0.528,0-1.005-0.109-1.429-0.328s-0.759-0.528-1.005-0.93h-0.063l-0.191,1.117h-0.424V57.48h0.678
		v2.678c0,0.401-0.01,0.771-0.027,1.109l-0.021,0.582h0.049c0.282-0.446,0.623-0.774,1.021-0.984
		C156.645,60.655,157.124,60.551,157.685,60.551z M157.672,61.168c-0.876,0-1.503,0.251-1.881,0.752
		c-0.379,0.501-0.567,1.328-0.567,2.48v0.116c0,1.121,0.196,1.925,0.591,2.412c0.395,0.488,1.009,0.731,1.844,0.731
		c0.812,0,1.422-0.283,1.832-0.851c0.411-0.567,0.616-1.375,0.616-2.423C160.106,62.241,159.295,61.168,157.672,61.168z"/>
	<path d="M163.556,68.121h-0.677V57.48h0.677V68.121z"/>
	<path d="M169.047,68.262c-1.08,0-1.923-0.333-2.527-0.998c-0.604-0.665-0.906-1.598-0.906-2.796c0-1.185,0.292-2.134,0.876-2.848
		c0.584-0.713,1.37-1.069,2.359-1.069c0.875,0,1.566,0.306,2.072,0.917c0.506,0.61,0.76,1.44,0.76,2.489v0.547h-5.356
		c0.01,1.02,0.248,1.798,0.715,2.335c0.468,0.537,1.137,0.806,2.008,0.806c0.424,0,0.797-0.029,1.118-0.089s0.729-0.187,1.221-0.383
		v0.615c-0.419,0.184-0.807,0.308-1.162,0.374S169.476,68.262,169.047,68.262z M168.849,61.152c-0.716,0-1.291,0.236-1.724,0.708
		c-0.434,0.472-0.687,1.152-0.76,2.042h4.598c0-0.862-0.188-1.536-0.562-2.021S169.51,61.152,168.849,61.152z"/>
	<path d="M177.269,58.63c0-0.438,0.144-0.657,0.431-0.657c0.141,0,0.251,0.057,0.331,0.171s0.12,0.276,0.12,0.486
		c0,0.205-0.04,0.367-0.12,0.485s-0.19,0.178-0.331,0.178C177.412,59.293,177.269,59.071,177.269,58.63z M178.041,68.121h-0.677
		v-7.43h0.677V68.121z"/>
	<path d="M185.711,68.121v-4.815c0-0.746-0.157-1.289-0.472-1.629c-0.314-0.339-0.802-0.509-1.463-0.509
		c-0.889,0-1.539,0.225-1.951,0.673c-0.413,0.448-0.619,1.176-0.619,2.182v4.099h-0.677v-7.43h0.574l0.13,1.021h0.041
		c0.483-0.773,1.342-1.161,2.577-1.161c1.687,0,2.529,0.904,2.529,2.713v4.857H185.711z"/>
	<path d="M194.385,67.66c0.428,0,0.802-0.036,1.12-0.109v0.547c-0.328,0.109-0.706,0.164-1.134,0.164
		c-0.656,0-1.141-0.176-1.452-0.526c-0.313-0.352-0.469-0.903-0.469-1.656v-4.802h-1.1v-0.396l1.1-0.307l0.342-1.681h0.35v1.797
		h2.179v0.586h-2.179v4.707c0,0.569,0.1,0.991,0.3,1.266C193.642,67.523,193.956,67.66,194.385,67.66z"/>
	<path d="M202.295,68.121v-4.815c0-0.746-0.157-1.289-0.472-1.629c-0.314-0.339-0.802-0.509-1.463-0.509
		c-0.889,0-1.539,0.225-1.951,0.673c-0.413,0.448-0.619,1.176-0.619,2.182v4.099h-0.677V57.48h0.677v3.39l-0.034,0.951h0.048
		c0.278-0.446,0.629-0.77,1.053-0.97s0.95-0.301,1.579-0.301c1.687,0,2.529,0.904,2.529,2.713v4.857H202.295z"/>
	<path d="M208.374,68.262c-1.08,0-1.923-0.333-2.527-0.998c-0.604-0.665-0.906-1.598-0.906-2.796c0-1.185,0.292-2.134,0.876-2.848
		c0.583-0.713,1.37-1.069,2.359-1.069c0.876,0,1.566,0.306,2.072,0.917c0.506,0.61,0.76,1.44,0.76,2.489v0.547h-5.356
		c0.01,1.02,0.248,1.798,0.715,2.335c0.468,0.537,1.137,0.806,2.008,0.806c0.424,0,0.797-0.029,1.118-0.089s0.729-0.187,1.221-0.383
		v0.615c-0.419,0.184-0.807,0.308-1.162,0.374C209.194,68.229,208.803,68.262,208.374,68.262z M208.176,61.152
		c-0.716,0-1.29,0.236-1.724,0.708s-0.687,1.152-0.76,2.042h4.598c0-0.862-0.188-1.536-0.562-2.021S208.837,61.152,208.176,61.152z"
		/>
	<path d="M219.831,60.551c1.039,0,1.822,0.327,2.349,0.981c0.526,0.653,0.79,1.609,0.79,2.867c0,1.235-0.277,2.188-0.831,2.857
		s-1.333,1.005-2.335,1.005c-0.529,0-1.006-0.109-1.43-0.328s-0.76-0.528-1.006-0.93h-0.061l-0.191,1.117h-0.424V57.48h0.676v2.678
		c0,0.401-0.009,0.771-0.027,1.109l-0.02,0.582h0.047c0.283-0.446,0.624-0.774,1.022-0.984
		C218.79,60.655,219.27,60.551,219.831,60.551z M219.817,61.168c-0.876,0-1.503,0.251-1.881,0.752
		c-0.379,0.501-0.568,1.328-0.568,2.48v0.116c0,1.121,0.197,1.925,0.592,2.412c0.395,0.488,1.009,0.731,1.844,0.731
		c0.812,0,1.422-0.283,1.832-0.851c0.411-0.567,0.616-1.375,0.616-2.423C222.252,62.241,221.44,61.168,219.817,61.168z"/>
	<path d="M227.948,60.551c0.314,0,0.651,0.032,1.011,0.097l-0.13,0.652c-0.31-0.077-0.631-0.116-0.963-0.116
		c-0.633,0-1.152,0.269-1.558,0.806s-0.608,1.216-0.608,2.035v4.097h-0.677v-7.43h0.574l0.068,1.342h0.048
		c0.306-0.546,0.631-0.93,0.978-1.151C227.037,60.661,227.456,60.551,227.948,60.551z"/>
	<path d="M236.618,64.399c0,1.212-0.294,2.159-0.882,2.84c-0.588,0.682-1.399,1.022-2.434,1.022c-0.651,0-1.226-0.157-1.723-0.472
		s-0.877-0.766-1.142-1.354s-0.396-1.267-0.396-2.037c0-1.212,0.294-2.156,0.882-2.834c0.588-0.676,1.395-1.015,2.42-1.015
		c1.021,0,1.821,0.343,2.403,1.028C236.327,62.266,236.618,63.205,236.618,64.399z M230.753,64.399c0,1.021,0.225,1.816,0.674,2.388
		c0.448,0.571,1.083,0.857,1.903,0.857s1.455-0.286,1.903-0.857c0.449-0.571,0.674-1.367,0.674-2.388
		c0-1.024-0.227-1.819-0.68-2.385c-0.454-0.564-1.091-0.847-1.911-0.847s-1.452,0.281-1.897,0.844
		C230.976,62.574,230.753,63.37,230.753,64.399z"/>
	<path d="M244.617,68.121l-1.628-4.969c-0.104-0.338-0.238-0.832-0.402-1.483h-0.041l-0.145,0.506l-0.307,0.991l-1.655,4.955h-0.67
		l-2.126-7.43h0.725l1.189,4.306c0.278,1.066,0.461,1.851,0.547,2.352h0.041c0.27-1.066,0.465-1.774,0.588-2.126l1.531-4.531h0.615
		l1.457,4.518c0.328,1.071,0.528,1.78,0.602,2.126h0.041c0.036-0.296,0.219-1.089,0.547-2.379l1.135-4.265h0.684l-2.017,7.43
		H244.617z"/>
	<path d="M253.409,66.19c0,0.665-0.253,1.177-0.76,1.535c-0.506,0.357-1.224,0.536-2.153,0.536c-0.994,0-1.782-0.153-2.366-0.461
		v-0.732c0.748,0.374,1.536,0.561,2.366,0.561c0.733,0,1.291-0.121,1.672-0.364s0.571-0.567,0.571-0.972
		c0-0.374-0.152-0.688-0.455-0.943s-0.801-0.506-1.494-0.752c-0.743-0.269-1.265-0.5-1.566-0.694
		c-0.301-0.193-0.527-0.412-0.68-0.656c-0.153-0.243-0.229-0.541-0.229-0.892c0-0.556,0.233-0.996,0.701-1.319
		c0.467-0.323,1.12-0.485,1.959-0.485c0.802,0,1.563,0.151,2.284,0.452l-0.253,0.616c-0.729-0.301-1.407-0.451-2.031-0.451
		c-0.606,0-1.087,0.101-1.443,0.3c-0.355,0.201-0.533,0.479-0.533,0.833c0,0.388,0.138,0.697,0.414,0.93
		c0.275,0.232,0.814,0.492,1.617,0.779c0.67,0.241,1.158,0.459,1.463,0.653c0.306,0.193,0.535,0.413,0.688,0.659
		C253.333,65.568,253.409,65.857,253.409,66.19z"/>
	<path d="M258.324,68.262c-1.08,0-1.923-0.333-2.527-0.998c-0.604-0.665-0.906-1.598-0.906-2.796c0-1.185,0.292-2.134,0.876-2.848
		c0.584-0.713,1.37-1.069,2.359-1.069c0.875,0,1.566,0.306,2.072,0.917c0.506,0.61,0.76,1.44,0.76,2.489v0.547h-5.356
		c0.01,1.02,0.248,1.798,0.715,2.335c0.468,0.537,1.137,0.806,2.008,0.806c0.424,0,0.797-0.029,1.118-0.089s0.729-0.187,1.221-0.383
		v0.615c-0.419,0.184-0.807,0.308-1.162,0.374S258.753,68.262,258.324,68.262z M258.126,61.152c-0.716,0-1.291,0.236-1.724,0.708
		c-0.434,0.472-0.687,1.152-0.76,2.042h4.598c0-0.862-0.188-1.536-0.562-2.021S258.787,61.152,258.126,61.152z"/>
	<path d="M265.929,60.551c0.314,0,0.651,0.032,1.011,0.097l-0.13,0.652c-0.31-0.077-0.631-0.116-0.963-0.116
		c-0.633,0-1.152,0.269-1.558,0.806s-0.608,1.216-0.608,2.035v4.097h-0.677v-7.43h0.574l0.068,1.342h0.048
		c0.306-0.546,0.631-0.93,0.978-1.151C265.018,60.661,265.437,60.551,265.929,60.551z"/>
</g>
<g>
	<path d="M97.765,195.172h-2.871v-31.21c0-2.833,0.117-5.773,0.352-8.821c-0.293,0.293-0.596,0.577-0.908,0.851
		s-3.33,2.646-9.053,7.121l-1.67-2.08l11.631-8.704h2.52V195.172z"/>
</g>
<g>
	<path fill="#221E1F" d="M339.812,114.935h-0.645v-11.56c0-4.88-0.434-7.692-2.813-9.528c-2.303-1.778-6.338-2.459-13.451-3.164
		c-14.115-1.395-21.811-1.501-31.143-1.501c-0.795,0-1.6,0-2.428,0.002c-0.828-0.002-1.639-0.002-2.434-0.002
		c-9.332,0-17.027,0.106-31.143,1.501c-7.113,0.705-11.146,1.386-13.451,3.164c-2.377,1.836-2.813,4.648-2.813,9.528v24.506h-0.451
		c-0.182,0-0.33,0.15-0.33,0.333v30.549c0,0.183,0.148,0.332,0.33,0.332h0.451v112.822c0,4.395,0,7.57,1.818,9.839
		c1.805,2.255,5.311,3.498,12.098,4.295c13.52,1.582,22.236,1.893,32.727,1.893c1.053,0,2.117-0.004,3.191-0.007
		c1.082,0.003,2.146,0.007,3.197,0.007c10.49,0,19.211-0.311,32.727-1.893c6.789-0.797,10.293-2.04,12.1-4.295
		c1.816-2.269,1.816-5.444,1.816-9.839V127.743h0.645c0.18,0,0.33-0.151,0.33-0.332v-12.144
		C340.142,115.085,339.991,114.935,339.812,114.935"/>
	<path fill="#7AFFD1" d="M256.228,98.045c-0.936,0-1.693,0.761-1.693,1.691c0,0.935,0.758,1.695,1.693,1.695
		c0.934,0,1.691-0.761,1.691-1.695C257.919,98.806,257.161,98.045,256.228,98.045 M289.333,96.586c-1.656,0-3,1.346-3,3
		c0,1.653,1.344,2.998,3,2.998c1.65,0,2.996-1.345,2.996-2.998C292.329,97.932,290.983,96.586,289.333,96.586"/>
	<line fill="#FFFFFF" x1="244.446" y1="189.427" x2="244.446" y2="185.271"/>
	<line fill="#FFFFFF" x1="334.212" y1="185.271" x2="334.212" y2="189.427"/>
	<line fill="#FFFFFF" x1="244.446" y1="185.271" x2="244.446" y2="181.115"/>
	<line fill="#FFFFFF" x1="334.212" y1="181.115" x2="334.212" y2="185.271"/>
	<line fill="#F7F8F9" x1="244.446" y1="197.737" x2="244.446" y2="193.582"/>
	<line fill="#FFFFFF" x1="334.212" y1="193.582" x2="334.212" y2="197.737"/>
	<line fill="#FFFFFF" x1="244.446" y1="193.583" x2="244.446" y2="189.427"/>
	<line fill="#F7F8F9" x1="334.212" y1="189.427" x2="334.212" y2="193.583"/>
	<line fill="#F7F8F9" x1="244.446" y1="206.05" x2="244.446" y2="201.895"/>
	<line fill="#FFFFFF" x1="334.212" y1="201.895" x2="334.212" y2="206.05"/>
	<line fill="#FFFFFF" x1="244.446" y1="201.894" x2="244.446" y2="197.737"/>
	<line fill="#F7F8F9" x1="334.212" y1="197.737" x2="334.212" y2="201.894"/>
	<line fill="#F7F8F9" x1="244.446" y1="214.362" x2="244.446" y2="210.207"/>
	<line fill="#FFFFFF" x1="334.212" y1="210.207" x2="334.212" y2="214.362"/>
	<line fill="#FFFFFF" x1="244.446" y1="210.206" x2="244.446" y2="206.05"/>
	<line fill="#F7F8F9" x1="334.212" y1="206.05" x2="334.212" y2="210.206"/>
	<line fill="#F7F8F9" x1="244.446" y1="222.674" x2="244.446" y2="218.518"/>
	<line fill="#FFFFFF" x1="334.212" y1="218.518" x2="334.212" y2="222.674"/>
	<line fill="#FFFFFF" x1="244.446" y1="218.517" x2="244.446" y2="214.362"/>
	<line fill="#F7F8F9" x1="334.212" y1="214.362" x2="334.212" y2="218.517"/>
	<line fill="#F7F8F9" x1="244.446" y1="230.985" x2="244.446" y2="226.829"/>
	<line fill="#FFFFFF" x1="334.212" y1="226.829" x2="334.212" y2="230.985"/>
	<line fill="#FFFFFF" x1="244.446" y1="226.829" x2="244.446" y2="222.673"/>
	<line fill="#F7F8F9" x1="334.212" y1="222.673" x2="334.212" y2="226.829"/>
	<line fill="#FFFFFF" x1="244.446" y1="239.297" x2="244.446" y2="235.142"/>
	<line fill="#FFFFFF" x1="334.212" y1="235.142" x2="334.212" y2="239.297"/>
	<line fill="#FFFFFF" x1="244.446" y1="235.142" x2="244.446" y2="230.985"/>
	<line fill="#FFFFFF" x1="334.212" y1="230.985" x2="334.212" y2="235.142"/>
	<line fill="#FFFFFF" x1="244.446" y1="247.609" x2="244.446" y2="243.454"/>
	<line fill="#FFFFFF" x1="334.212" y1="243.454" x2="334.212" y2="247.609"/>
	<line fill="#FFFFFF" x1="244.446" y1="243.453" x2="244.446" y2="239.297"/>
	<line fill="#FFFFFF" x1="334.212" y1="239.297" x2="334.212" y2="243.453"/>
	<line fill="#FFFFFF" x1="244.446" y1="255.921" x2="244.446" y2="251.766"/>
	<line fill="#FFFFFF" x1="334.212" y1="251.766" x2="334.212" y2="255.921"/>
	<line fill="#FFFFFF" x1="244.446" y1="251.765" x2="244.446" y2="247.609"/>
	<line fill="#FFFFFF" x1="334.212" y1="247.609" x2="334.212" y2="251.765"/>
	<line fill="#FFFFFF" x1="244.446" y1="264.233" x2="244.446" y2="260.076"/>
	<line fill="#FFFFFF" x1="334.212" y1="260.076" x2="334.212" y2="264.233"/>
	<line fill="#FFFFFF" x1="244.446" y1="260.076" x2="244.446" y2="255.921"/>
	<line fill="#FFFFFF" x1="334.212" y1="255.921" x2="334.212" y2="260.076"/>
	<line fill="#FFFFFF" x1="252.759" y1="265.895" x2="248.601" y2="265.895"/>
	<polyline fill="#FFFFFF" points="248.601,265.895 244.446,265.895 244.446,264.233 	"/>
	<line fill="#FFFFFF" x1="256.913" y1="265.895" x2="252.759" y2="265.895"/>
	<line fill="#FFFFFF" x1="261.069" y1="265.895" x2="256.913" y2="265.895"/>
	<line fill="#FFFFFF" x1="265.226" y1="265.895" x2="261.069" y2="265.895"/>
	<line fill="#FFFFFF" x1="269.382" y1="265.895" x2="265.226" y2="265.895"/>
	<line fill="#FFFFFF" x1="273.536" y1="265.895" x2="269.382" y2="265.895"/>
	<line fill="#FFFFFF" x1="277.692" y1="265.895" x2="273.536" y2="265.895"/>
	<line fill="#FFFFFF" x1="281.849" y1="265.895" x2="277.692" y2="265.895"/>
	<line fill="#FFFFFF" x1="286.005" y1="265.895" x2="281.849" y2="265.895"/>
	<line fill="#FFFFFF" x1="290.161" y1="265.895" x2="286.005" y2="265.895"/>
	<line fill="#FFFFFF" x1="294.317" y1="265.895" x2="290.161" y2="265.895"/>
	<line fill="#FFFFFF" x1="298.472" y1="265.895" x2="294.317" y2="265.895"/>
	<line fill="#FFFFFF" x1="302.628" y1="265.895" x2="298.472" y2="265.895"/>
	<line fill="#FFFFFF" x1="306.784" y1="265.895" x2="302.628" y2="265.895"/>
	<line fill="#FFFFFF" x1="310.94" y1="265.895" x2="306.784" y2="265.895"/>
	<line fill="#FFFFFF" x1="315.095" y1="265.895" x2="310.94" y2="265.895"/>
	<line fill="#FFFFFF" x1="319.251" y1="265.895" x2="315.095" y2="265.895"/>
	<line fill="#FFFFFF" x1="323.407" y1="265.895" x2="319.251" y2="265.895"/>
	<line fill="#FFFFFF" x1="327.563" y1="265.895" x2="323.407" y2="265.895"/>
	<line fill="#FFFFFF" x1="331.72" y1="265.895" x2="327.563" y2="265.895"/>
	<polyline fill="#FFFFFF" points="334.212,264.233 334.212,265.895 331.72,265.895 	"/>
	<line fill="#FFFFFF" x1="244.446" y1="181.115" x2="244.446" y2="176.959"/>
	<line fill="#FFFFFF" x1="334.212" y1="176.959" x2="334.212" y2="181.115"/>
	<line fill="#FFFFFF" x1="244.446" y1="176.959" x2="244.446" y2="172.804"/>
	<line fill="#FFFFFF" x1="334.212" y1="172.804" x2="334.212" y2="176.959"/>
	<line fill="#FFFFFF" x1="244.446" y1="172.804" x2="244.446" y2="168.646"/>
	<line fill="#FFFFFF" x1="334.212" y1="168.646" x2="334.212" y2="172.804"/>
	<line fill="#FFFFFF" x1="244.446" y1="168.646" x2="244.446" y2="164.49"/>
	<line fill="#FFFFFF" x1="334.212" y1="164.49" x2="334.212" y2="168.646"/>
	<line fill="#FFFFFF" x1="244.446" y1="164.491" x2="244.446" y2="160.336"/>
	<line fill="#FFFFFF" x1="334.212" y1="160.336" x2="334.212" y2="164.491"/>
	<line fill="#FFFFFF" x1="244.446" y1="160.336" x2="244.446" y2="156.179"/>
	<line fill="#FFFFFF" x1="334.212" y1="156.179" x2="334.212" y2="160.336"/>
	<line fill="#FFFFFF" x1="244.446" y1="156.179" x2="244.446" y2="152.023"/>
	<line fill="#FFFFFF" x1="334.212" y1="152.023" x2="334.212" y2="156.179"/>
	<line fill="#FFFFFF" x1="244.446" y1="152.023" x2="244.446" y2="147.868"/>
	<line fill="#FFFFFF" x1="334.212" y1="147.868" x2="334.212" y2="152.023"/>
	<line fill="#FFFFFF" x1="244.446" y1="147.868" x2="244.446" y2="143.711"/>
	<line fill="#FFFFFF" x1="334.212" y1="143.711" x2="334.212" y2="147.868"/>
	<line fill="#FFFFFF" x1="244.446" y1="143.712" x2="244.446" y2="139.555"/>
	<line fill="#FFFFFF" x1="334.212" y1="139.555" x2="334.212" y2="143.712"/>
	<line fill="#FFFFFF" x1="244.446" y1="139.555" x2="244.446" y2="135.399"/>
	<line fill="#FFFFFF" x1="334.212" y1="135.399" x2="334.212" y2="139.555"/>
	<line fill="#FFFFFF" x1="244.446" y1="135.399" x2="244.446" y2="131.244"/>
	<line fill="#FFFFFF" x1="334.212" y1="131.244" x2="334.212" y2="135.399"/>
	<line fill="#FFFFFF" x1="244.446" y1="131.244" x2="244.446" y2="127.087"/>
	<line fill="#FFFFFF" x1="334.212" y1="127.087" x2="334.212" y2="131.244"/>
	<line fill="#FFFFFF" x1="244.446" y1="127.088" x2="244.446" y2="122.932"/>
	<line fill="#FFFFFF" x1="334.212" y1="122.932" x2="334.212" y2="127.088"/>
	<line fill="#FFFFFF" x1="244.446" y1="122.932" x2="244.446" y2="118.776"/>
	<line fill="#FFFFFF" x1="334.212" y1="118.776" x2="334.212" y2="122.932"/>
	<line fill="#FFFFFF" x1="244.446" y1="118.776" x2="244.446" y2="114.62"/>
	<line fill="#FFFFFF" x1="334.212" y1="114.62" x2="334.212" y2="118.776"/>
	<line fill="#FFFFFF" x1="244.446" y1="114.62" x2="244.446" y2="110.464"/>
	<line fill="#FFFFFF" x1="334.212" y1="110.464" x2="334.212" y2="114.62"/>
	<line fill="#FFFFFF" x1="248.601" y1="106.308" x2="252.759" y2="106.308"/>
	<polyline fill="#FFFFFF" points="244.446,110.464 244.446,106.308 248.601,106.308 	"/>
	<line fill="#FFFFFF" x1="252.759" y1="106.308" x2="256.913" y2="106.308"/>
	<line fill="#FFFFFF" x1="256.913" y1="106.308" x2="261.069" y2="106.308"/>
	<line fill="#FFFFFF" x1="261.069" y1="106.308" x2="265.226" y2="106.308"/>
	<line fill="#FFFFFF" x1="265.226" y1="106.308" x2="269.382" y2="106.308"/>
	<line fill="#FFFFFF" x1="269.382" y1="106.308" x2="273.536" y2="106.308"/>
	<line fill="#FFFFFF" x1="273.536" y1="106.308" x2="277.692" y2="106.308"/>
	<line fill="#FFFFFF" x1="277.692" y1="106.308" x2="281.849" y2="106.308"/>
	<line fill="#FFFFFF" x1="281.849" y1="106.308" x2="286.005" y2="106.308"/>
	<line fill="#FFFFFF" x1="286.005" y1="106.308" x2="290.161" y2="106.308"/>
	<line fill="#FFFFFF" x1="290.161" y1="106.308" x2="294.317" y2="106.308"/>
	<line fill="#FFFFFF" x1="294.317" y1="106.308" x2="298.472" y2="106.308"/>
	<line fill="#FFFFFF" x1="298.472" y1="106.308" x2="302.628" y2="106.308"/>
	<line fill="#FFFFFF" x1="302.628" y1="106.308" x2="306.784" y2="106.308"/>
	<line fill="#FFFFFF" x1="306.784" y1="106.308" x2="310.94" y2="106.308"/>
	<line fill="#FFFFFF" x1="310.94" y1="106.308" x2="315.095" y2="106.308"/>
	<line fill="#FFFFFF" x1="315.095" y1="106.308" x2="319.251" y2="106.308"/>
	<line fill="#FFFFFF" x1="319.251" y1="106.308" x2="323.407" y2="106.308"/>
	<line fill="#FFFFFF" x1="323.407" y1="106.308" x2="327.563" y2="106.308"/>
	<line fill="#FFFFFF" x1="327.563" y1="106.308" x2="331.72" y2="106.308"/>
	<polyline fill="#FFFFFF" points="331.72,106.308 334.212,106.308 334.212,110.464 	"/>
</g>
<rect x="244.446" y="106.308" fill="#7AFFD1" width="89.766" height="160.092"/>
<g>
	<path d="M301.903,195.172h-26.809v-2.578l11.396-11.896c3.203-3.32,5.449-5.859,6.738-7.617s2.238-3.438,2.844-5.039
		s0.908-3.281,0.908-5.039c0-2.559-0.84-4.639-2.52-6.24s-3.859-2.403-6.535-2.403c-3.574,0-6.992,1.299-10.254,3.896l-1.582-2.021
		c3.574-3,7.539-4.5,11.895-4.5c3.73,0,6.666,0.996,8.805,2.987c2.139,1.992,3.209,4.735,3.209,8.23c0,2.832-0.719,5.57-2.154,8.216
		s-4.059,5.912-7.867,9.798l-10.986,11.276v0.117h22.912V195.172z"/>
</g>
</svg>
